<svg xmlns="http://www.w3.org/2000/svg" xmlns:xlink="http://www.w3.org/1999/xlink" xmlns:lucid="lucid" width="3952" height="1760"><g transform="translate(1296 0)" lucid:page-tab-id="YGcM5DNywbTK"><g filter="url(#a)"><path d="M600 202h160v60H600z" stroke="#3d4752" stroke-width="4" fill="#fff"/><use xlink:href="#b" transform="matrix(1,0,0,1,605,207) translate(37.33333333333333 30.333333333333336)"/></g><g filter="url(#a)"><path d="M250 412c0 16.57-35.82 30-80 30s-80-13.43-80-30 35.82-30 80-30 80 13.43 80 30z" stroke="#3d4752" stroke-width="4" fill="#fff"/><use xlink:href="#c" transform="matrix(1,0,0,1,95,387) translate(22.55555555555555 30.333333333333336)"/></g><g filter="url(#d)"><path d="M450 502c0 22.1-53.73 40-120 40-66.27 0-120-17.9-120-40s53.73-40 120-40c66.27 0 120 17.9 120 40z" stroke="#3d4752" stroke-width="4" fill="#fff"/><use xlink:href="#e" transform="matrix(1,0,0,1,215,467) translate(27.59259259259261 24.77777777777778)"/><use xlink:href="#f" transform="matrix(1,0,0,1,215,467) translate(83.20987654320987 54.111111111111114)"/></g><g filter="url(#g)"><path d="M650 572c0 16.57-44.77 30-100 30s-100-13.43-100-30 44.77-30 100-30 100 13.43 100 30z" stroke="#3d4752" stroke-width="4" fill="#fff"/><use xlink:href="#h" transform="matrix(1,0,0,1,455,547) translate(4.074074074074076 30.333333333333336)"/></g><g filter="url(#a)"><path d="M910 532c0 16.57-35.82 30-80 30s-80-13.43-80-30 35.82-30 80-30 80 13.43 80 30z" stroke="#3d4752" stroke-width="4" fill="#fff"/><use xlink:href="#i" transform="matrix(1,0,0,1,755,507) translate(5.592592592592595 30.333333333333336)"/></g><g filter="url(#a)"><path d="M1070 472c0 16.57-35.82 30-80 30s-80-13.43-80-30 35.82-30 80-30 80 13.43 80 30z" stroke="#3d4752" stroke-width="4" fill="#fff"/><use xlink:href="#j" transform="matrix(1,0,0,1,915,447) translate(7.740740740740733 30.333333333333336)"/></g><g filter="url(#a)"><path d="M1230 412c0 16.57-35.82 30-80 30s-80-13.43-80-30 35.82-30 80-30 80 13.43 80 30z" stroke="#3d4752" stroke-width="4" fill="#fff"/><use xlink:href="#k" transform="matrix(1,0,0,1,1075,387) translate(14.407407407407405 30.333333333333336)"/></g><path d="M598 216H206.33v145.76" stroke="#494949" stroke-width="4" fill="none"/><path d="M600 218h-2v-4h2zM206.33 376.76l-4.64-14.27h9.26z" fill="#494949"/><path d="M206.33 383.23l-7.4-22.74h14.8zm-1.88-18.74l1.88 5.8 1.88-5.8z" fill="#494949"/><path d="M639.37 264v199H521.5v56.84" stroke="#494949" stroke-width="4" fill="none"/><path d="M641.37 264h-4v-2h4zM521.5 534.84l-4.65-14.27h9.27z" fill="#494949"/><path d="M521.5 541.3l-7.4-22.73h14.78zm-1.9-18.73l1.9 5.8 1.87-5.8z" fill="#494949"/><path d="M598 247H330v191.53" stroke="#494949" stroke-width="4" fill="none"/><path d="M600 249h-2v-4h2zM330 453.53l-4.64-14.27h9.28z" fill="#494949"/><path d="M330 460l-7.4-22.74h14.8zm-1.88-18.74l1.88 5.8 1.88-5.8z" fill="#494949"/><path d="M762 217h388v141.53" stroke="#494949" stroke-width="4" fill="none"/><path d="M762 219h-2v-4h2zM1150 373.53l-4.64-14.27h9.28z" fill="#494949"/><path d="M1150 380l-7.4-22.74h14.8zm-1.88-18.74l1.88 5.8 1.88-5.8z" fill="#494949"/><path d="M724.7 264v118H830v96.53" stroke="#494949" stroke-width="4" fill="none"/><path d="M726.7 264h-4v-2h4zM830 493.53l-4.64-14.27h9.28z" fill="#494949"/><path d="M830 500l-7.4-22.74h14.8zm-1.88-18.74l1.88 5.8 1.88-5.8z" fill="#494949"/><path d="M762 248h228v170.53" stroke="#494949" stroke-width="4" fill="none"/><path d="M762 250h-2v-4h2zM990 433.53l-4.64-14.27h9.28z" fill="#494949"/><path d="M990 440l-7.4-22.74h14.8zm-1.88-18.74l1.88 5.8 1.88-5.8z" fill="#494949"/><g filter="url(#l)"><path d="M-740 792h160v80h-160z" stroke="#3d4752" stroke-width="4" fill="#fff"/><use xlink:href="#m" transform="matrix(1,0,0,1,-735,797) translate(10.666666666666671 40.333333333333336)"/></g><g filter="url(#n)"><path d="M-940 902c0 16.57-40.3 30-90 30s-90-13.43-90-30 40.3-30 90-30 90 13.43 90 30z" stroke="#3d4752" stroke-width="4" fill="#fff"/><use xlink:href="#o" transform="matrix(1,0,0,1,-1115,877) translate(14.037037037037038 30.333333333333336)"/></g><g filter="url(#p)"><path d="M-752 962c0 16.57-51.04 30-114 30s-114-13.43-114-30 51.04-30 114-30 114 13.43 114 30z" stroke="#3d4752" stroke-width="4" fill="#fff"/><use xlink:href="#q" transform="matrix(1,0,0,1,-975,937) translate(9.074074074074062 30.333333333333336)"/></g><g filter="url(#r)"><path d="M-540 1062c0 16.57-53.73 30-120 30-66.27 0-120-13.43-120-30s53.73-30 120-30c66.27 0 120 13.43 120 30z" stroke="#3d4752" stroke-width="4" fill="#fff"/><use xlink:href="#s" transform="matrix(1,0,0,1,-775,1037) translate(11.481481481481481 30.333333333333336)"/></g><g filter="url(#t)"><path d="M-340 962c0 16.57-53.73 30-120 30-66.27 0-120-13.43-120-30s53.73-30 120-30c66.27 0 120 13.43 120 30z" stroke="#3d4752" stroke-width="4" fill="#fff"/><use xlink:href="#u" transform="matrix(1,0,0,1,-575,937) translate(13.629629629629633 30.333333333333336)"/></g><g filter="url(#g)"><path d="M-180 902c0 16.57-44.77 30-100 30s-100-13.43-100-30 44.77-30 100-30 100 13.43 100 30z" stroke="#3d4752" stroke-width="4" fill="#fff"/><use xlink:href="#v" transform="matrix(1,0,0,1,-375,877) translate(12.148148148148152 30.333333333333336)"/></g><path d="M-742 813.33h-288v35.2" stroke="#494949" stroke-width="4" fill="none"/><path d="M-740 815.33h-2v-4h2zM-1030 863.53l-4.64-14.27h9.28z" fill="#494949"/><path d="M-1030 870l-7.4-22.74h14.8zm-1.88-18.74l1.88 5.8 1.88-5.8z" fill="#494949"/><path d="M-742 832h-124v76.53" stroke="#494949" stroke-width="4" fill="none"/><path d="M-740 834h-2v-4h2zM-866 923.53l-4.64-14.27h9.28z" fill="#494949"/><path d="M-866 930l-7.4-22.74h14.8zm-1.88-18.74l1.88 5.8 1.88-5.8z" fill="#494949"/><path d="M-578 832h118v76.53" stroke="#494949" stroke-width="4" fill="none"/><path d="M-578 834h-2v-4h2zM-460 923.53l-4.64-14.27h9.28z" fill="#494949"/><path d="M-460 930l-7.4-22.74h14.8zm-1.88-18.74l1.88 5.8 1.88-5.8z" fill="#494949"/><path d="M-660 874v134.53" stroke="#494949" stroke-width="4" fill="none"/><path d="M-658 874h-4v-2h4zM-660 1023.53l-4.64-14.27h9.28z" fill="#494949"/><path d="M-660 1030l-7.4-22.74h14.8zm-1.88-18.74l1.88 5.8 1.88-5.8z" fill="#494949"/><path d="M-578 812h287.2v36.77" stroke="#494949" stroke-width="4" fill="none"/><path d="M-578 814h-2v-4h2zM-290.8 863.77l-4.64-14.26h9.27z" fill="#494949"/><path d="M-290.8 870.24l-7.4-22.73h14.78zm-1.9-18.73l1.9 5.8 1.88-5.8z" fill="#494949"/><g filter="url(#a)"><path d="M1860 772h160v60h-160z" stroke="#3d4752" stroke-width="4" fill="#fff"/><use xlink:href="#w" transform="matrix(1,0,0,1,1865,777) translate(34.25925925925925 30.333333333333336)"/></g><g filter="url(#x)"><path d="M1520 862c0 16.57-26.86 30-60 30s-60-13.43-60-30 26.86-30 60-30 60 13.43 60 30z" stroke="#3d4752" stroke-width="4" fill="#fff"/><use xlink:href="#y" transform="matrix(1,0,0,1,1405,837.0000000000001) translate(8.444444444444436 30.333333333333336)"/></g><g filter="url(#n)"><path d="M1660 942c0 16.57-40.3 30-90 30s-90-13.43-90-30 40.3-30 90-30 90 13.43 90 30z" stroke="#3d4752" stroke-width="4" fill="#fff"/><use xlink:href="#z" transform="matrix(1,0,0,1,1485,917) translate(3.6296296296296333 30.333333333333336)"/></g><g filter="url(#g)"><path d="M1800 1022c0 16.57-44.77 30-100 30s-100-13.43-100-30 44.77-30 100-30 100 13.43 100 30z" stroke="#3d4752" stroke-width="4" fill="#fff"/><use xlink:href="#A" transform="matrix(1,0,0,1,1605,997) translate(5.259259259259252 30.333333333333336)"/></g><g filter="url(#a)"><path d="M2120 1062c0 16.57-35.82 30-80 30s-80-13.43-80-30 35.82-30 80-30 80 13.43 80 30z" stroke="#3d4752" stroke-width="4" fill="#fff"/><use xlink:href="#B" transform="matrix(1,0,0,1,1965,1037) translate(1.7777777777777715 30.333333333333336)"/></g><g filter="url(#n)"><path d="M2240 992c0 16.57-40.3 30-90 30s-90-13.43-90-30 40.3-30 90-30 90 13.43 90 30z" stroke="#3d4752" stroke-width="4" fill="#fff"/><use xlink:href="#C" transform="matrix(1,0,0,1,2065,967) translate(2.074074074074076 30.333333333333336)"/></g><g filter="url(#D)"><path d="M2360 922c0 16.57-31.34 30-70 30s-70-13.43-70-30 31.34-30 70-30 70 13.43 70 30z" stroke="#3d4752" stroke-width="4" fill="#fff"/><use xlink:href="#E" transform="matrix(1,0,0,1,2225,897.0000000000001) translate(8 30.333333333333336)"/></g><g filter="url(#a)"><path d="M2520 862c0 16.57-35.82 30-80 30s-80-13.43-80-30 35.82-30 80-30 80 13.43 80 30z" stroke="#3d4752" stroke-width="4" fill="#fff"/><use xlink:href="#F" transform="matrix(1,0,0,1,2365,837.0000000000001) translate(13.555555555555557 30.333333333333336)"/></g><path d="M1858 782h-168v80h-146.53" stroke="#494949" stroke-width="4" fill="none"/><path d="M1860 784h-2v-4h2zM1542.74 866.64l-14.27-4.64 14.27-4.64z" fill="#494949"/><path d="M1544.74 869.4L1522 862l22.74-7.4zm-9.8-7.4l5.8 1.88v-3.76z" fill="#494949"/><path d="M1858 818.67h-98V942h-76.53" stroke="#494949" stroke-width="4" fill="none"/><path d="M1860 820.67h-2v-4h2zM1682.74 946.64l-14.27-4.64 14.27-4.64z" fill="#494949"/><path d="M1684.74 949.4L1662 942l22.74-7.4zm-9.8-7.4l5.8 1.88v-3.76z" fill="#494949"/><path d="M2022 782h168v80h146.53" stroke="#494949" stroke-width="4" fill="none"/><path d="M2022 784h-2v-4h2zM2351.53 862l-14.27 4.64v-9.28z" fill="#494949"/><path d="M2358 862l-22.74 7.4v-14.8zm-18.74 1.88l5.8-1.88-5.8-1.88z" fill="#494949"/><path d="M2022 816h128v106h46.53" stroke="#494949" stroke-width="4" fill="none"/><path d="M2022 818h-2v-4h2zM2211.53 922l-14.27 4.64v-9.28z" fill="#494949"/><path d="M2218 922l-22.74 7.4v-14.8zm-18.74 1.88l5.8-1.88-5.8-1.88z" fill="#494949"/><path d="M1998.67 834v63.3h134.5v41.8" stroke="#494949" stroke-width="4" fill="none"/><path d="M2000.67 834h-4v-2h4zM2133.16 954.1l-4.64-14.27h9.27z" fill="#494949"/><path d="M2133.16 960.57l-7.4-22.74h14.8zm-1.88-18.74l1.88 5.8 1.88-5.8z" fill="#494949"/><path d="M1975 834v98h65v76.53" stroke="#494949" stroke-width="4" fill="none"/><path d="M1977 834h-4v-2h4zM2040 1023.53l-4.64-14.27h9.28z" fill="#494949"/><path d="M2040 1030l-7.4-22.74h14.8zm-1.88-18.74l1.88 5.8 1.88-5.8z" fill="#494949"/><path d="M1878.67 834v188h-55.2" stroke="#494949" stroke-width="4" fill="none"/><path d="M1880.67 834h-4v-2h4zM1822.74 1026.64l-14.27-4.64 14.27-4.64z" fill="#494949"/><path d="M1824.74 1029.4L1802 1022l22.74-7.4zm-9.8-7.4l5.8 1.88v-3.76z" fill="#494949"/><g filter="url(#a)"><path d="M580 1322h160v60H580z" stroke="#3d4752" stroke-width="4" fill="#fff"/><use xlink:href="#G" transform="matrix(1,0,0,1,585,1327) translate(21.740740740740733 30.333333333333336)"/></g><g filter="url(#n)"><path d="M460 1422c0 16.57-40.3 30-90 30s-90-13.43-90-30 40.3-30 90-30 90 13.43 90 30z" stroke="#3d4752" stroke-width="4" fill="#fff"/><use xlink:href="#H" transform="matrix(1,0,0,1,285,1397) translate(4.999999999999986 30.333333333333336)"/></g><g filter="url(#n)"><path d="M640 1482c0 16.57-40.3 30-90 30s-90-13.43-90-30 40.3-30 90-30 90 13.43 90 30z" stroke="#3d4752" stroke-width="4" fill="#fff"/><use xlink:href="#I" transform="matrix(1,0,0,1,465,1457) translate(1.4074074074074048 30.333333333333336)"/></g><g filter="url(#g)"><path d="M880 1482c0 16.57-44.77 30-100 30s-100-13.43-100-30 44.77-30 100-30 100 13.43 100 30z" stroke="#3d4752" stroke-width="4" fill="#fff"/><use xlink:href="#J" transform="matrix(1,0,0,1,685.0000000000002,1457) translate(3.037037037037024 30.333333333333336)"/></g><g filter="url(#a)"><path d="M1040 1422c0 16.57-35.82 30-80 30s-80-13.43-80-30 35.82-30 80-30 80 13.43 80 30z" stroke="#3d4752" stroke-width="4" fill="#fff"/><use xlink:href="#K" transform="matrix(1,0,0,1,885,1397) translate(4.666666666666657 30.333333333333336)"/></g><path d="M578 1352H370v16.53" stroke="#494949" stroke-width="4" fill="none"/><path d="M580 1354h-2v-4h2zM370 1383.53l-4.64-14.27h9.28z" fill="#494949"/><path d="M370 1390l-7.4-22.74h14.8zm-1.88-18.74l1.88 5.8 1.88-5.8z" fill="#494949"/><path d="M605.33 1384v33H550v11.53" stroke="#494949" stroke-width="4" fill="none"/><path d="M607.33 1384h-4v-2h4zM550 1443.53l-4.64-14.27h9.28z" fill="#494949"/><path d="M550 1450l-7.4-22.74h14.8zm-1.88-18.74l1.88 5.8 1.88-5.8z" fill="#494949"/><path d="M702.67 1384v33H780v11.53" stroke="#494949" stroke-width="4" fill="none"/><path d="M704.67 1384h-4v-2h4zM780 1443.53l-4.64-14.27h9.28z" fill="#494949"/><path d="M780 1450l-7.4-22.74h14.8zm-1.88-18.74l1.88 5.8 1.88-5.8z" fill="#494949"/><path d="M742 1352h218v16.53" stroke="#494949" stroke-width="4" fill="none"/><path d="M742 1354h-2v-4h2zM960 1383.53l-4.64-14.27h9.28z" fill="#494949"/><path d="M960 1390l-7.4-22.74h14.8zm-1.88-18.74l1.88 5.8 1.88-5.8z" fill="#494949"/><g filter="url(#L)"><path d="M680 922l80 45-80 45-80-45z" stroke="#3d4752" stroke-width="4" fill="#fff"/><use xlink:href="#M" transform="matrix(1,0,0,1,605,927) translate(20.925925925925917 45.333333333333336)"/><use xlink:href="#N" transform="matrix(1,0,0,1,605,927) translate(71.2962962962963 45.333333333333336)"/></g><g filter="url(#l)"><path d="M-660 242l80 40-80 40-80-40z" stroke="#3d4752" stroke-width="4" fill="#fff"/><use xlink:href="#M" transform="matrix(1,0,0,1,-735,247) translate(24.62962962962962 40.333333333333336)"/><use xlink:href="#O" transform="matrix(1,0,0,1,-735,247) translate(75 40.333333333333336)"/></g><g filter="url(#P)"><path d="M680 702l80 60-80 60-80-60z" stroke="#3d4752" stroke-width="4" fill="#fff"/><use xlink:href="#M" transform="matrix(1,0,0,1,605,707) translate(34.99999999999999 42.733333333333334)"/><use xlink:href="#Q" transform="matrix(1,0,0,1,605,707) translate(85.37037037037038 42.733333333333334)"/><use xlink:href="#R" transform="matrix(1,0,0,1,605,707) translate(35 77.93333333333334)"/></g><g filter="url(#S)"><path d="M1940 442l100 40-100 40-100-40z" stroke="#3d4752" stroke-width="4" fill="#fff"/><use xlink:href="#T" transform="matrix(1,0,0,1,1845,447) translate(32.81481481481481 40.333333333333336)"/><use xlink:href="#U" transform="matrix(1,0,0,1,1845,447) translate(83.18518518518519 40.333333333333336)"/></g><path d="M1942 418.37h-4V162h-391.7v-4H1942zM1531.5 162H732v38h-4v-42h803.5zM732 202h-4v-2h4zM1940 433.37l-4.64-14.26h9.28z" fill="#494949"/><path d="M1940 439.85l-7.4-22.74h14.8zm-1.88-18.74l1.88 5.8 1.88-5.8z" fill="#494949"/><use xlink:href="#V" transform="matrix(1,0,0,1,1531.4975786254772,144) translate(0.004999999999999893 21.333333333333336)"/><path d="M1995 645.08v103.45h-4v-99.45h-17.1v-4zm-35.9 0v4H1938V524.15h4v120.93zM1942 524.15h-4v-2.95l2 .8 2-.8zM1993 763.53l-4.64-14.27h9.28z" fill="#494949"/><path d="M1993 770l-7.4-22.74h14.8zm-1.88-18.74l1.88 5.8 1.88-5.8z" fill="#494949"/><use xlink:href="#W" transform="matrix(1,0,0,1,1959.0925925925926,631.077033) translate(0.004999999999999893 21.333333333333336)"/><path d="M-245.6 162H-658v56.3h-4V158h416.4zM642 200h-4v-38h-868.8v-4H642zM642 202h-4v-2h4zM-660 233.3l-4.64-14.27h9.28z" fill="#494949"/><path d="M-660 239.76l-7.4-22.73h14.8zm-1.88-18.73l1.88 5.8 1.88-5.8z" fill="#494949"/><use xlink:href="#V" transform="matrix(1,0,0,1,-245.61144947006156,144) translate(0.004999999999999893 21.333333333333336)"/><path d="M-687.9 559.12H-699v209.4h-4v-213.4h15.1zm29.9 0h-15.1v-4h11.1V324.24h4zM-660 322l1.53-.76h.47v3h-4v-3h.47zM-701 783.53l-4.64-14.27h9.28z" fill="#494949"/><path d="M-701 790l-7.4-22.74h14.8zm-1.88-18.74l1.88 5.8 1.88-5.8z" fill="#494949"/><use xlink:href="#X" transform="matrix(1,0,0,1,-687.9074074074074,541.118034) translate(0.004999999999999893 21.333333333333336)"/><path d="M-146.7 702.36H-658V790h-4v-91.64h515.3zm774.22 16.53h-4v-16.54h-748.06v-4h752.06zM-658 792h-4v-2h4zM625.52 733.9l-4.64-14.28h9.28z" fill="#494949"/><path d="M625.52 740.36l-7.4-22.74h14.8zm-1.88-18.74l1.88 5.8 1.88-5.8z" fill="#494949"/><use xlink:href="#Y" transform="matrix(1,0,0,1,-146.68755685991943,684.3600001170432) translate(0.005000000000000782 21.333333333333336)"/><path d="M1942 748.53h-4v-53.97h-579.83v-4H1942zm-598.65-53.97H726.08v38h-4v-42h621.27zM726.08 735.56h-1.33l-2.67-2v-1h4zM1940 763.53l-4.64-14.27h9.28z" fill="#494949"/><path d="M1940 770l-7.4-22.74h14.8zm-1.88-18.74l1.88 5.8 1.88-5.8z" fill="#494949"/><use xlink:href="#V" transform="matrix(1,0,0,1,1343.3525925160038,676.5600000694271) translate(0.004999999999999893 21.333333333333336)"/><path d="M1297.93 732H802v237h-20.53v-4H798V728h499.93zM1902 770h-4v-38h-577.93v-4H1902zM1902 772h-4v-2h4zM780.74 971.64L766.47 967l14.27-4.64z" fill="#494949"/><path d="M782.74 974.4L760 967l22.74-7.4zm-9.8-7.4l5.8 1.88v-3.76z" fill="#494949"/><use xlink:href="#Y" transform="matrix(1,0,0,1,1297.9259259259259,714) translate(0.005000000000000782 21.333333333333336)"/><path d="M557.92 965h38v4h-42V752H88.37v-4h469.55zM73.55 752H-609v16.53h-4V748H73.55zM598.92 969h-3v-4h3zM-611 783.53l-4.64-14.27h9.28z" fill="#494949"/><path d="M-611 790l-7.4-22.74h14.8zm-1.88-18.74l1.88 5.8 1.88-5.8z" fill="#494949"/><use xlink:href="#X" transform="matrix(1,0,0,1,73.55286359259263,734) translate(0.004999999999999893 21.333333333333336)"/><path d="M1914 1378.3h-4v-245.42h4zm0-277.42h-4V834h4zM1914 834h-4v-2h4zM1912 1393.3l-4.64-14.27h9.28z" fill="#494949"/><path d="M1912 1399.76l-7.4-22.73h14.8zm-1.88-18.73l1.88 5.8 1.88-5.8z" fill="#494949"/><use xlink:href="#Z" transform="matrix(1,0,0,1,1904.5925925925926,1100.881966) translate(0.004999999999999893 21.333333333333336)"/><g filter="url(#l)"><path d="M1912 1402l80 40-80 40-80-40z" stroke="#3d4752" stroke-width="4" fill="#fff"/><use xlink:href="#T" transform="matrix(1,0,0,1,1837,1407) translate(20.925925925925917 40.333333333333336)"/><use xlink:href="#aa" transform="matrix(1,0,0,1,1837,1407) translate(71.2962962962963 40.333333333333336)"/></g><path d="M1789.53 1440h38v4h-42v-162h-448.86v-4h452.86zm-467.67-158H711v16.53h-4V1278h614.86zM1830.53 1444h-3v-4h3zM709 1313.53l-4.64-14.27h9.28z" fill="#494949"/><path d="M709 1320l-7.4-22.74h14.8zm-1.88-18.74l1.88 5.8 1.88-5.8z" fill="#494949"/><use xlink:href="#W" transform="matrix(1,0,0,1,1321.8565245925925,1264) translate(0.004999999999999893 21.333333333333336)"/><path d="M812.6 1114.12H662V1320h-4v-209.88h154.6zm169.4 0H827.4v-4H978v-184.4h4zM662 1322h-4v-2h4zM984.64 924.97h-9.28L980 910.7z" fill="#494949"/><path d="M987.4 926.97h-14.8l7.4-22.73zm-9.28-4h3.76l-1.88-5.8z" fill="#494949"/><use xlink:href="#V" transform="matrix(1,0,0,1,812.5925925925926,1096.118034) translate(0.004999999999999893 21.333333333333336)"/><g filter="url(#l)"><path d="M980 822l80 40-80 40-80-40z" stroke="#3d4752" stroke-width="4" fill="#fff"/><use xlink:href="#ab" transform="matrix(1,0,0,1,905,827.0000000000001) translate(53.51851851851852 40.333333333333336)"/></g><path d="M982 610v188.3h-4V614H870.6v-4zm-126.2 0v4H678V264h4v346zM682 264h-4v-2h4zM980 813.3l-4.64-14.27h9.28z" fill="#494949"/><path d="M980 819.76l-7.4-22.73h14.8zm-1.88-18.73l1.88 5.8 1.88-5.8z" fill="#494949"/><use xlink:href="#Z" transform="matrix(1,0,0,1,855.792592592593,596) translate(0.004999999999999893 21.333333333333336)"/><path d="M734.15 1064H622.2v234.53h-4V1060h115.95zm214.16 0H748.98v-4H944.3V887.4h4zM948.3 886.15v1.24h-4v-3h.48zM620.2 1313.53l-4.64-14.27h9.28z" fill="#494949"/><path d="M620.2 1320l-7.4-22.74h14.8zm-1.88-18.74l1.88 5.8 1.88-5.8z" fill="#494949"/><use xlink:href="#Z" transform="matrix(1,0,0,1,734.1509517925928,1046) translate(0.004999999999999893 21.333333333333336)"/><defs><path fill="#3d4752" d="M30-248c87 1 191-15 191 75 0 78-77 80-158 76V0H30v-248zm33 125c57 0 124 11 124-50 0-59-68-47-124-48v98" id="ac"/><path fill="#3d4752" d="M114-163C36-179 61-72 57 0H25l-1-190h30c1 12-1 29 2 39 6-27 23-49 58-41v29" id="ad"/><path fill="#3d4752" d="M100-194c62-1 85 37 85 99 1 63-27 99-86 99S16-35 15-95c0-66 28-99 85-99zM99-20c44 1 53-31 53-75 0-43-8-75-51-75s-53 32-53 75 10 74 51 75" id="ae"/><path fill="#3d4752" d="M101-234c-31-9-42 10-38 44h38v23H63V0H32v-167H5v-23h27c-7-52 17-82 69-68v24" id="af"/><path fill="#3d4752" d="M24-231v-30h32v30H24zM24 0v-190h32V0H24" id="ag"/><path fill="#3d4752" d="M24 0v-261h32V0H24" id="ah"/><path fill="#3d4752" d="M100-194c63 0 86 42 84 106H49c0 40 14 67 53 68 26 1 43-12 49-29l28 8c-11 28-37 45-77 45C44 4 14-33 15-96c1-61 26-98 85-98zm52 81c6-60-76-77-97-28-3 7-6 17-6 28h103" id="ai"/><g id="b"><use transform="matrix(0.07407407407407408,0,0,0.07407407407407408,0,0)" xlink:href="#ac"/><use transform="matrix(0.07407407407407408,0,0,0.07407407407407408,17.77777777777778,0)" xlink:href="#ad"/><use transform="matrix(0.07407407407407408,0,0,0.07407407407407408,26.592592592592595,0)" xlink:href="#ae"/><use transform="matrix(0.07407407407407408,0,0,0.07407407407407408,41.40740740740741,0)" xlink:href="#af"/><use transform="matrix(0.07407407407407408,0,0,0.07407407407407408,48.814814814814824,0)" xlink:href="#ag"/><use transform="matrix(0.07407407407407408,0,0,0.07407407407407408,54.666666666666686,0)" xlink:href="#ah"/><use transform="matrix(0.07407407407407408,0,0,0.07407407407407408,60.51851851851853,0)" xlink:href="#ai"/></g><filter id="a" filterUnits="objectBoundingBox" x="-.06" y="-.07" width="1.13" height="1.33"><feOffset result="offOut" in="SourceAlpha" dy="6"/><feGaussianBlur result="blurOut" in="offOut" stdDeviation="5"/><feColorMatrix result="colorOut" in="blurOut" values="0 0 0 0 0 0 0 0 0 0 0 0 0 0 0 0 0 0 0.16862745098039217 0"/><feBlend in="SourceGraphic" in2="colorOut"/></filter><path fill="#3d4752" d="M135-194c53 0 70 44 70 98 0 56-19 98-73 100-31 1-45-17-59-34 3 33 2 69 2 105H25l-1-265h48c2 10 0 23 3 31 11-24 29-35 60-35zM114-30c33 0 39-31 40-66 0-38-9-64-40-64-56 0-55 130 0 130" id="aj"/><path fill="#3d4752" d="M135-150c-39-12-60 13-60 57V0H25l-1-190h47c2 13-1 29 3 40 6-28 27-53 61-41v41" id="ak"/><path fill="#3d4752" d="M110-194c64 0 96 36 96 99 0 64-35 99-97 99-61 0-95-36-95-99 0-62 34-99 96-99zm-1 164c35 0 45-28 45-65 0-40-10-65-43-65-34 0-45 26-45 65 0 36 10 65 43 65" id="al"/><path fill="#3d4752" d="M121-226c-27-7-43 5-38 36h38v33H83V0H34v-157H6v-33h28c-9-59 32-81 87-68v32" id="am"/><path fill="#3d4752" d="M25-224v-37h50v37H25zM25 0v-190h50V0H25" id="an"/><path fill="#3d4752" d="M25 0v-261h50V0H25" id="ao"/><path fill="#3d4752" d="M185-48c-13 30-37 53-82 52C43 2 14-33 14-96s30-98 90-98c62 0 83 45 84 108H66c0 31 8 55 39 56 18 0 30-7 34-22zm-45-69c5-46-57-63-70-21-2 6-4 13-4 21h74" id="ap"/><path fill="#3d4752" d="M24 0v-248h52V0H24" id="aq"/><path fill="#3d4752" d="M88-194c31-1 46 15 58 34l-1-101h50l1 261h-48c-2-10 0-23-3-31C134-8 116 4 84 4 32 4 16-41 15-95c0-56 19-97 73-99zm17 164c33 0 40-30 41-66 1-37-9-64-41-64s-38 30-39 65c0 43 13 65 39 65" id="ar"/><g id="c"><use transform="matrix(0.07407407407407408,0,0,0.07407407407407408,0,0)" xlink:href="#aj"/><use transform="matrix(0.07407407407407408,0,0,0.07407407407407408,16.222222222222225,0)" xlink:href="#ak"/><use transform="matrix(0.07407407407407408,0,0,0.07407407407407408,26.592592592592595,0)" xlink:href="#al"/><use transform="matrix(0.07407407407407408,0,0,0.07407407407407408,42.814814814814824,0)" xlink:href="#am"/><use transform="matrix(0.07407407407407408,0,0,0.07407407407407408,51.62962962962963,0)" xlink:href="#an"/><use transform="matrix(0.07407407407407408,0,0,0.07407407407407408,59.03703703703705,0)" xlink:href="#ao"/><use transform="matrix(0.07407407407407408,0,0,0.07407407407407408,66.44444444444446,0)" xlink:href="#ap"/><use transform="matrix(0.07407407407407408,0,0,0.07407407407407408,81.25925925925927,0)" xlink:href="#aq"/><use transform="matrix(0.07407407407407408,0,0,0.07407407407407408,88.66666666666667,0)" xlink:href="#ar"/><path fill="#3d4752" d="M-1.33 1.43h107.56v2.8H-1.33z"/></g><path fill="#3d4752" d="M199 0l-22-63H83L61 0H9l90-248h61L250 0h-51zm-33-102l-36-108c-10 38-24 72-36 108h72" id="as"/><path fill="#3d4752" d="M190-63c-7 42-38 67-86 67-59 0-84-38-90-98-12-110 154-137 174-36l-49 2c-2-19-15-32-35-32-30 0-35 28-38 64-6 74 65 87 74 30" id="at"/><path fill="#3d4752" d="M115-3C79 11 28 4 28-45v-112H4v-33h27l15-45h31v45h36v33H77v99c-1 23 16 31 38 25v30" id="au"/><path fill="#3d4752" d="M128 0H69L1-190h53L99-40l48-150h52" id="av"/><path fill="#3d4752" d="M133-34C117-15 103 5 69 4 32 3 11-16 11-54c-1-60 55-63 116-61 1-26-3-47-28-47-18 1-26 9-28 27l-52-2c7-38 36-58 82-57s74 22 75 68l1 82c-1 14 12 18 25 15v27c-30 8-71 5-69-32zm-48 3c29 0 43-24 42-57-32 0-66-3-65 30 0 17 8 27 23 27" id="aw"/><path fill="#3d4752" d="M135-194c87-1 58 113 63 194h-50c-7-57 23-157-34-157-59 0-34 97-39 157H25l-1-190h47c2 12-1 28 3 38 12-26 28-41 61-42" id="ax"/><g id="e"><use transform="matrix(0.06172839506172839,0,0,0.06172839506172839,0,0)" xlink:href="#aj"/><use transform="matrix(0.06172839506172839,0,0,0.06172839506172839,13.518518518518517,0)" xlink:href="#ak"/><use transform="matrix(0.06172839506172839,0,0,0.06172839506172839,22.160493827160494,0)" xlink:href="#al"/><use transform="matrix(0.06172839506172839,0,0,0.06172839506172839,35.67901234567901,0)" xlink:href="#am"/><use transform="matrix(0.06172839506172839,0,0,0.06172839506172839,43.02469135802469,0)" xlink:href="#an"/><use transform="matrix(0.06172839506172839,0,0,0.06172839506172839,49.19753086419753,0)" xlink:href="#ao"/><use transform="matrix(0.06172839506172839,0,0,0.06172839506172839,55.370370370370374,0)" xlink:href="#ap"/><use transform="matrix(0.06172839506172839,0,0,0.06172839506172839,67.71604938271605,0)" xlink:href="#as"/><use transform="matrix(0.06172839506172839,0,0,0.06172839506172839,83.70370370370371,0)" xlink:href="#at"/><use transform="matrix(0.06172839506172839,0,0,0.06172839506172839,96.0493827160494,0)" xlink:href="#au"/><use transform="matrix(0.06172839506172839,0,0,0.06172839506172839,103.39506172839508,0)" xlink:href="#an"/><use transform="matrix(0.06172839506172839,0,0,0.06172839506172839,109.56790123456791,0)" xlink:href="#av"/><use transform="matrix(0.06172839506172839,0,0,0.06172839506172839,121.9135802469136,0)" xlink:href="#aw"/><use transform="matrix(0.06172839506172839,0,0,0.06172839506172839,134.25925925925927,0)" xlink:href="#au"/><use transform="matrix(0.06172839506172839,0,0,0.06172839506172839,141.60493827160494,0)" xlink:href="#an"/><use transform="matrix(0.06172839506172839,0,0,0.06172839506172839,147.77777777777777,0)" xlink:href="#al"/><use transform="matrix(0.06172839506172839,0,0,0.06172839506172839,161.29629629629628,0)" xlink:href="#ax"/></g><path fill="#3d4752" d="M136-208V0H84v-208H4v-40h212v40h-80" id="ay"/><path fill="#3d4752" d="M147 0L96-86 75-71V0H25v-261h50v150l67-79h53l-66 74L201 0h-54" id="az"/><g id="f"><use transform="matrix(0.06172839506172839,0,0,0.06172839506172839,0,0)" xlink:href="#ay"/><use transform="matrix(0.06172839506172839,0,0,0.06172839506172839,11.851851851851851,0)" xlink:href="#al"/><use transform="matrix(0.06172839506172839,0,0,0.06172839506172839,25.370370370370367,0)" xlink:href="#az"/><use transform="matrix(0.06172839506172839,0,0,0.06172839506172839,37.716049382716044,0)" xlink:href="#ap"/><use transform="matrix(0.06172839506172839,0,0,0.06172839506172839,50.06172839506172,0)" xlink:href="#ax"/></g><filter id="d" filterUnits="objectBoundingBox" x="-.04" y="-.05" width="1.08" height="1.25"><feOffset result="offOut" in="SourceAlpha" dy="6"/><feGaussianBlur result="blurOut" in="offOut" stdDeviation="5"/><feColorMatrix result="colorOut" in="blurOut" values="0 0 0 0 0 0 0 0 0 0 0 0 0 0 0 0 0 0 0.16862745098039217 0"/><feBlend in="SourceGraphic" in2="colorOut"/></filter><path fill="#3d4752" d="M115-194c55 1 70 41 70 98S169 2 115 4C84 4 66-9 55-30l1 105H24l-1-265h31l2 30c10-21 28-34 59-34zm-8 174c40 0 45-34 45-75s-6-73-45-74c-42 0-51 32-51 76 0 43 10 73 51 73" id="aA"/><path fill="#3d4752" d="M205 0l-28-72H64L36 0H1l101-248h38L239 0h-34zm-38-99l-47-123c-12 45-31 82-46 123h93" id="aB"/><path fill="#3d4752" d="M59-47c-2 24 18 29 38 22v24C64 9 27 4 27-40v-127H5v-23h24l9-43h21v43h35v23H59v120" id="aC"/><path fill="#3d4752" d="M197 0v-115H63V0H30v-248h33v105h134v-105h34V0h-34" id="aD"/><path fill="#3d4752" d="M141-36C126-15 110 5 73 4 37 3 15-17 15-53c-1-64 63-63 125-63 3-35-9-54-41-54-24 1-41 7-42 31l-33-3c5-37 33-52 76-52 45 0 72 20 72 64v82c-1 20 7 32 28 27v20c-31 9-61-2-59-35zM48-53c0 20 12 33 32 33 41-3 63-29 60-74-43 2-92-5-92 41" id="aE"/><path fill="#3d4752" d="M117-194c89-4 53 116 60 194h-32v-121c0-31-8-49-39-48C34-167 62-67 57 0H25l-1-190h30c1 10-1 24 2 32 11-22 29-35 61-36" id="aF"/><path fill="#3d4752" d="M85-194c31 0 48 13 60 33l-1-100h32l1 261h-30c-2-10 0-23-3-31C134-8 116 4 85 4 32 4 16-35 15-94c0-66 23-100 70-100zm9 24c-40 0-46 34-46 75 0 40 6 74 45 74 42 0 51-32 51-76 0-42-9-74-50-73" id="aG"/><g id="h"><use transform="matrix(0.07407407407407408,0,0,0.07407407407407408,0,0)" xlink:href="#aA"/><use transform="matrix(0.07407407407407408,0,0,0.07407407407407408,14.814814814814817,0)" xlink:href="#ad"/><use transform="matrix(0.07407407407407408,0,0,0.07407407407407408,23.629629629629633,0)" xlink:href="#ae"/><use transform="matrix(0.07407407407407408,0,0,0.07407407407407408,38.44444444444445,0)" xlink:href="#af"/><use transform="matrix(0.07407407407407408,0,0,0.07407407407407408,45.851851851851855,0)" xlink:href="#ag"/><use transform="matrix(0.07407407407407408,0,0,0.07407407407407408,51.70370370370372,0)" xlink:href="#ah"/><use transform="matrix(0.07407407407407408,0,0,0.07407407407407408,57.55555555555557,0)" xlink:href="#ai"/><use transform="matrix(0.07407407407407408,0,0,0.07407407407407408,72.37037037037038,0)" xlink:href="#aB"/><use transform="matrix(0.07407407407407408,0,0,0.07407407407407408,90.14814814814817,0)" xlink:href="#aC"/><use transform="matrix(0.07407407407407408,0,0,0.07407407407407408,97.55555555555556,0)" xlink:href="#aD"/><use transform="matrix(0.07407407407407408,0,0,0.07407407407407408,116.74074074074073,0)" xlink:href="#aE"/><use transform="matrix(0.07407407407407408,0,0,0.07407407407407408,131.55555555555557,0)" xlink:href="#aF"/><use transform="matrix(0.07407407407407408,0,0,0.07407407407407408,146.37037037037038,0)" xlink:href="#aG"/><use transform="matrix(0.07407407407407408,0,0,0.07407407407407408,161.18518518518522,0)" xlink:href="#ah"/><use transform="matrix(0.07407407407407408,0,0,0.07407407407407408,167.03703703703704,0)" xlink:href="#ai"/></g><filter id="g" filterUnits="objectBoundingBox" x="-.05" y="-.07" width="1.1" height="1.33"><feOffset result="offOut" in="SourceAlpha" dy="6"/><feGaussianBlur result="blurOut" in="offOut" stdDeviation="5"/><feColorMatrix result="colorOut" in="blurOut" values="0 0 0 0 0 0 0 0 0 0 0 0 0 0 0 0 0 0 0.16862745098039217 0"/><feBlend in="SourceGraphic" in2="colorOut"/></filter><path fill="#3d4752" d="M30 0v-248h187v28H63v79h144v27H63v87h162V0H30" id="aH"/><path fill="#3d4752" d="M210-169c-67 3-38 105-44 169h-31v-121c0-29-5-50-35-48C34-165 62-65 56 0H25l-1-190h30c1 10-1 24 2 32 10-44 99-50 107 0 11-21 27-35 58-36 85-2 47 119 55 194h-31v-121c0-29-5-49-35-48" id="aI"/><g id="i"><use transform="matrix(0.07407407407407408,0,0,0.07407407407407408,0,0)" xlink:href="#aA"/><use transform="matrix(0.07407407407407408,0,0,0.07407407407407408,14.814814814814817,0)" xlink:href="#ad"/><use transform="matrix(0.07407407407407408,0,0,0.07407407407407408,23.629629629629633,0)" xlink:href="#ae"/><use transform="matrix(0.07407407407407408,0,0,0.07407407407407408,38.44444444444445,0)" xlink:href="#af"/><use transform="matrix(0.07407407407407408,0,0,0.07407407407407408,45.851851851851855,0)" xlink:href="#ag"/><use transform="matrix(0.07407407407407408,0,0,0.07407407407407408,51.70370370370372,0)" xlink:href="#ah"/><use transform="matrix(0.07407407407407408,0,0,0.07407407407407408,57.55555555555557,0)" xlink:href="#ai"/><use transform="matrix(0.07407407407407408,0,0,0.07407407407407408,72.37037037037038,0)" xlink:href="#aH"/><use transform="matrix(0.07407407407407408,0,0,0.07407407407407408,90.14814814814817,0)" xlink:href="#aI"/><use transform="matrix(0.07407407407407408,0,0,0.07407407407407408,112.2962962962963,0)" xlink:href="#aE"/><use transform="matrix(0.07407407407407408,0,0,0.07407407407407408,127.11111111111111,0)" xlink:href="#ag"/><use transform="matrix(0.07407407407407408,0,0,0.07407407407407408,132.96296296296296,0)" xlink:href="#ah"/></g><path fill="#3d4752" d="M135-143c-3-34-86-38-87 0 15 53 115 12 119 90S17 21 10-45l28-5c4 36 97 45 98 0-10-56-113-15-118-90-4-57 82-63 122-42 12 7 21 19 24 35" id="aJ"/><path fill="#3d4752" d="M106-169C34-169 62-67 57 0H25v-261h32l-1 103c12-21 28-36 61-36 89 0 53 116 60 194h-32v-121c2-32-8-49-39-48" id="aK"/><g id="j"><use transform="matrix(0.07407407407407408,0,0,0.07407407407407408,0,0)" xlink:href="#aA"/><use transform="matrix(0.07407407407407408,0,0,0.07407407407407408,14.814814814814817,0)" xlink:href="#ad"/><use transform="matrix(0.07407407407407408,0,0,0.07407407407407408,23.629629629629633,0)" xlink:href="#ae"/><use transform="matrix(0.07407407407407408,0,0,0.07407407407407408,38.44444444444445,0)" xlink:href="#af"/><use transform="matrix(0.07407407407407408,0,0,0.07407407407407408,45.851851851851855,0)" xlink:href="#ag"/><use transform="matrix(0.07407407407407408,0,0,0.07407407407407408,51.70370370370372,0)" xlink:href="#ah"/><use transform="matrix(0.07407407407407408,0,0,0.07407407407407408,57.55555555555557,0)" xlink:href="#ai"/><use transform="matrix(0.07407407407407408,0,0,0.07407407407407408,72.37037037037038,0)" xlink:href="#aD"/><use transform="matrix(0.07407407407407408,0,0,0.07407407407407408,91.55555555555557,0)" xlink:href="#aE"/><use transform="matrix(0.07407407407407408,0,0,0.07407407407407408,106.37037037037038,0)" xlink:href="#aJ"/><use transform="matrix(0.07407407407407408,0,0,0.07407407407407408,119.70370370370372,0)" xlink:href="#aK"/></g><path fill="#3d4752" d="M233-177c-1 41-23 64-60 70L243 0h-38l-65-103H63V0H30v-248c88 3 205-21 203 71zM63-129c60-2 137 13 137-47 0-61-80-42-137-45v92" id="aL"/><g id="k"><use transform="matrix(0.07407407407407408,0,0,0.07407407407407408,0,0)" xlink:href="#aA"/><use transform="matrix(0.07407407407407408,0,0,0.07407407407407408,14.814814814814817,0)" xlink:href="#ad"/><use transform="matrix(0.07407407407407408,0,0,0.07407407407407408,23.629629629629633,0)" xlink:href="#ae"/><use transform="matrix(0.07407407407407408,0,0,0.07407407407407408,38.44444444444445,0)" xlink:href="#af"/><use transform="matrix(0.07407407407407408,0,0,0.07407407407407408,45.851851851851855,0)" xlink:href="#ag"/><use transform="matrix(0.07407407407407408,0,0,0.07407407407407408,51.70370370370372,0)" xlink:href="#ah"/><use transform="matrix(0.07407407407407408,0,0,0.07407407407407408,57.55555555555557,0)" xlink:href="#ai"/><use transform="matrix(0.07407407407407408,0,0,0.07407407407407408,72.37037037037038,0)" xlink:href="#aL"/><use transform="matrix(0.07407407407407408,0,0,0.07407407407407408,91.55555555555557,0)" xlink:href="#ai"/><use transform="matrix(0.07407407407407408,0,0,0.07407407407407408,106.37037037037038,0)" xlink:href="#aA"/></g><path fill="#3d4752" d="M212-179c-10-28-35-45-73-45-59 0-87 40-87 99 0 60 29 101 89 101 43 0 62-24 78-52l27 14C228-24 195 4 139 4 59 4 22-46 18-125c-6-104 99-153 187-111 19 9 31 26 39 46" id="aM"/><g id="m"><use transform="matrix(0.07407407407407408,0,0,0.07407407407407408,0,0)" xlink:href="#aM"/><use transform="matrix(0.07407407407407408,0,0,0.07407407407407408,19.185185185185187,0)" xlink:href="#ae"/><use transform="matrix(0.07407407407407408,0,0,0.07407407407407408,34,0)" xlink:href="#aI"/><use transform="matrix(0.07407407407407408,0,0,0.07407407407407408,56.14814814814815,0)" xlink:href="#aI"/><use transform="matrix(0.07407407407407408,0,0,0.07407407407407408,78.2962962962963,0)" xlink:href="#ai"/><use transform="matrix(0.07407407407407408,0,0,0.07407407407407408,93.1111111111111,0)" xlink:href="#aF"/><use transform="matrix(0.07407407407407408,0,0,0.07407407407407408,107.92592592592592,0)" xlink:href="#aC"/><use transform="matrix(0.07407407407407408,0,0,0.07407407407407408,115.33333333333333,0)" xlink:href="#aJ"/></g><filter id="l" filterUnits="objectBoundingBox" x="-.06" y="-.05" width="1.13" height="1.25"><feOffset result="offOut" in="SourceAlpha" dy="6"/><feGaussianBlur result="blurOut" in="offOut" stdDeviation="5"/><feColorMatrix result="colorOut" in="blurOut" values="0 0 0 0 0 0 0 0 0 0 0 0 0 0 0 0 0 0 0.16862745098039217 0"/><feBlend in="SourceGraphic" in2="colorOut"/></filter><path fill="#3d4752" d="M220-157c-53 9-28 100-34 157h-49v-107c1-27-5-49-29-50C55-147 81-57 75 0H25l-1-190h47c2 12-1 28 3 38 10-53 101-56 108 0 13-22 24-43 59-42 82 1 51 116 57 194h-49v-107c-1-25-5-48-29-50" id="aN"/><g id="o"><use transform="matrix(0.07407407407407408,0,0,0.07407407407407408,0,0)" xlink:href="#at"/><use transform="matrix(0.07407407407407408,0,0,0.07407407407407408,14.814814814814817,0)" xlink:href="#al"/><use transform="matrix(0.07407407407407408,0,0,0.07407407407407408,31.03703703703704,0)" xlink:href="#aN"/><use transform="matrix(0.07407407407407408,0,0,0.07407407407407408,54.74074074074075,0)" xlink:href="#aN"/><use transform="matrix(0.07407407407407408,0,0,0.07407407407407408,78.44444444444446,0)" xlink:href="#ap"/><use transform="matrix(0.07407407407407408,0,0,0.07407407407407408,93.25925925925927,0)" xlink:href="#ax"/><use transform="matrix(0.07407407407407408,0,0,0.07407407407407408,109.4814814814815,0)" xlink:href="#au"/><use transform="matrix(0.07407407407407408,0,0,0.07407407407407408,118.29629629629632,0)" xlink:href="#aq"/><use transform="matrix(0.07407407407407408,0,0,0.07407407407407408,125.70370370370371,0)" xlink:href="#ar"/><path fill="#3d4752" d="M-1.33 1.43h144.6v2.8H-1.34z"/></g><filter id="n" filterUnits="objectBoundingBox" x="-.06" y="-.07" width="1.11" height="1.33"><feOffset result="offOut" in="SourceAlpha" dy="6"/><feGaussianBlur result="blurOut" in="offOut" stdDeviation="5"/><feColorMatrix result="colorOut" in="blurOut" values="0 0 0 0 0 0 0 0 0 0 0 0 0 0 0 0 0 0 0.16862745098039217 0"/><feBlend in="SourceGraphic" in2="colorOut"/></filter><path fill="#3d4752" d="M44-68c0 29 11 47 38 47 30 0 42-19 51-41l28 9C148-21 126 4 82 4 31 4 10-29 12-85c3-77 74-140 146-93 12 8 15 23 18 40l-31 5c-1-22-13-36-36-36-52 0-65 49-65 101" id="aO"/><path fill="#3d4752" d="M30-147c31-64 166-65 159 27C183-49 158 1 86 4 9 8 1-88 30-147zM88-20c53 0 68-48 68-100 0-31-11-51-44-50-52 1-68 46-68 97 0 32 13 53 44 53" id="aP"/><path fill="#3d4752" d="M248-111c6-24 9-61-24-58-72 9-57 108-77 169h-31l26-142c3-37-50-30-64-10C52-115 50-51 37 0H6l36-190h30c-1 10-6 24-4 32 13-43 101-52 105 5 13-22 29-41 61-41 90 0 28 129 23 194h-31" id="aQ"/><path fill="#3d4752" d="M111-194c62-3 86 47 72 106H45c-7 38 6 69 45 68 27-1 43-14 53-32l24 11C152-15 129 4 87 4 38 3 12-23 12-71c0-70 32-119 99-123zm44 81c14-66-71-72-95-28-4 8-8 17-11 28h106" id="aR"/><path fill="#3d4752" d="M67-158c22-48 132-52 116 29L158 0h-32l25-140c3-38-53-32-70-12C52-117 51-52 38 0H6l36-190h30" id="aS"/><path fill="#3d4752" d="M51-54c-9 22 5 41 31 30L79-1C43 14 10-4 19-52l22-115H19l5-23h22l19-43h21l-9 43h35l-4 23H73" id="aT"/><path fill="#3d4752" d="M11 0l48-248h184l-5 28H87l-15 79h140l-5 27H67L50-27h158l-5 27H11" id="aU"/><path fill="#3d4752" d="M89 0H52L20-190h33L74-25l89-165h34" id="aV"/><path fill="#3d4752" d="M14 0l48-248h34L48 0H14" id="aW"/><path fill="#3d4752" d="M133-28C103 26-5 8 13-77c13-62 24-115 90-117 29-1 46 15 56 35l19-102h32L160 0h-30zM45-64c-2 27 10 43 35 43 54-1 69-50 69-103 0-29-15-46-42-46-53-1-58 58-62 106" id="aX"/><g id="q"><use transform="matrix(0.07407407407407408,0,0,0.07407407407407408,0,0)" xlink:href="#aO"/><use transform="matrix(0.07407407407407408,0,0,0.07407407407407408,13.333333333333336,0)" xlink:href="#aP"/><use transform="matrix(0.07407407407407408,0,0,0.07407407407407408,28.148148148148152,0)" xlink:href="#aQ"/><use transform="matrix(0.07407407407407408,0,0,0.07407407407407408,50.296296296296305,0)" xlink:href="#aQ"/><use transform="matrix(0.07407407407407408,0,0,0.07407407407407408,72.44444444444446,0)" xlink:href="#aR"/><use transform="matrix(0.07407407407407408,0,0,0.07407407407407408,87.25925925925927,0)" xlink:href="#aS"/><use transform="matrix(0.07407407407407408,0,0,0.07407407407407408,102.07407407407408,0)" xlink:href="#aT"/><use transform="matrix(0.07407407407407408,0,0,0.07407407407407408,109.48148148148148,0)" xlink:href="#aU"/><use transform="matrix(0.07407407407407408,0,0,0.07407407407407408,127.25925925925925,0)" xlink:href="#aV"/><use transform="matrix(0.07407407407407408,0,0,0.07407407407407408,140.5925925925926,0)" xlink:href="#aR"/><use transform="matrix(0.07407407407407408,0,0,0.07407407407407408,155.40740740740742,0)" xlink:href="#aS"/><use transform="matrix(0.07407407407407408,0,0,0.07407407407407408,170.22222222222226,0)" xlink:href="#aT"/><use transform="matrix(0.07407407407407408,0,0,0.07407407407407408,177.62962962962965,0)" xlink:href="#aW"/><use transform="matrix(0.07407407407407408,0,0,0.07407407407407408,185.03703703703707,0)" xlink:href="#aX"/><path fill="#3d4752" d="M-1.33 1.85H201.2V3.8H-1.34z"/></g><filter id="p" filterUnits="objectBoundingBox" x="-.04" y="-.07" width="1.09" height="1.33"><feOffset result="offOut" in="SourceAlpha" dy="6"/><feGaussianBlur result="blurOut" in="offOut" stdDeviation="5"/><feColorMatrix result="colorOut" in="blurOut" values="0 0 0 0 0 0 0 0 0 0 0 0 0 0 0 0 0 0 0.16862745098039217 0"/><feBlend in="SourceGraphic" in2="colorOut"/></filter><path fill="#3d4752" d="M238-179c0 84-86 86-175 82L45 0H11l48-248c82 0 179-12 179 69zm-34 1c0-53-64-42-116-43l-19 98c63 0 135 9 135-55" id="aY"/><path fill="#3d4752" d="M66-151c12-25 30-51 66-40l-6 26C45-176 58-65 38 0H6l36-190h30" id="aZ"/><path fill="#3d4752" d="M76-167L44 0H12l33-167H18l4-23h27c3-47 25-81 82-69l-4 24c-35-8-44 15-46 45h37l-5 23H76" id="ba"/><path fill="#3d4752" d="M50-231l6-30h32l-6 30H50zM6 0l37-190h31L37 0H6" id="bb"/><path fill="#3d4752" d="M6 0l50-261h32L37 0H6" id="bc"/><g id="s"><use transform="matrix(0.07407407407407408,0,0,0.07407407407407408,0,0)" xlink:href="#aO"/><use transform="matrix(0.07407407407407408,0,0,0.07407407407407408,13.333333333333336,0)" xlink:href="#aP"/><use transform="matrix(0.07407407407407408,0,0,0.07407407407407408,28.148148148148152,0)" xlink:href="#aQ"/><use transform="matrix(0.07407407407407408,0,0,0.07407407407407408,50.296296296296305,0)" xlink:href="#aQ"/><use transform="matrix(0.07407407407407408,0,0,0.07407407407407408,72.44444444444446,0)" xlink:href="#aR"/><use transform="matrix(0.07407407407407408,0,0,0.07407407407407408,87.25925925925927,0)" xlink:href="#aS"/><use transform="matrix(0.07407407407407408,0,0,0.07407407407407408,102.07407407407408,0)" xlink:href="#aT"/><use transform="matrix(0.07407407407407408,0,0,0.07407407407407408,109.48148148148148,0)" xlink:href="#aY"/><use transform="matrix(0.07407407407407408,0,0,0.07407407407407408,127.25925925925925,0)" xlink:href="#aZ"/><use transform="matrix(0.07407407407407408,0,0,0.07407407407407408,136.07407407407408,0)" xlink:href="#aP"/><use transform="matrix(0.07407407407407408,0,0,0.07407407407407408,150.88888888888889,0)" xlink:href="#ba"/><use transform="matrix(0.07407407407407408,0,0,0.07407407407407408,158.2962962962963,0)" xlink:href="#bb"/><use transform="matrix(0.07407407407407408,0,0,0.07407407407407408,164.14814814814812,0)" xlink:href="#bc"/><use transform="matrix(0.07407407407407408,0,0,0.07407407407407408,170,0)" xlink:href="#aR"/><use transform="matrix(0.07407407407407408,0,0,0.07407407407407408,184.8148148148148,0)" xlink:href="#aW"/><use transform="matrix(0.07407407407407408,0,0,0.07407407407407408,192.2222222222222,0)" xlink:href="#aX"/><path fill="#3d4752" d="M-1.33 1.85h209.7V3.8H-1.33z"/></g><filter id="r" filterUnits="objectBoundingBox" x="-.04" y="-.07" width="1.08" height="1.33"><feOffset result="offOut" in="SourceAlpha" dy="6"/><feGaussianBlur result="blurOut" in="offOut" stdDeviation="5"/><feColorMatrix result="colorOut" in="blurOut" values="0 0 0 0 0 0 0 0 0 0 0 0 0 0 0 0 0 0 0.16862745098039217 0"/><feBlend in="SourceGraphic" in2="colorOut"/></filter><path fill="#3d4752" d="M96-169c-40 0-48 33-48 73s9 75 48 75c24 0 41-14 43-38l32 2c-6 37-31 61-74 61-59 0-76-41-82-99-10-93 101-131 147-64 4 7 5 14 7 22l-32 3c-4-21-16-35-41-35" id="bd"/><g id="u"><use transform="matrix(0.07407407407407408,0,0,0.07407407407407408,0,0)" xlink:href="#bd"/><use transform="matrix(0.07407407407407408,0,0,0.07407407407407408,13.333333333333336,0)" xlink:href="#ae"/><use transform="matrix(0.07407407407407408,0,0,0.07407407407407408,28.148148148148152,0)" xlink:href="#aI"/><use transform="matrix(0.07407407407407408,0,0,0.07407407407407408,50.296296296296305,0)" xlink:href="#aI"/><use transform="matrix(0.07407407407407408,0,0,0.07407407407407408,72.44444444444446,0)" xlink:href="#ai"/><use transform="matrix(0.07407407407407408,0,0,0.07407407407407408,87.25925925925927,0)" xlink:href="#aF"/><use transform="matrix(0.07407407407407408,0,0,0.07407407407407408,102.07407407407408,0)" xlink:href="#aC"/><use transform="matrix(0.07407407407407408,0,0,0.07407407407407408,109.48148148148148,0)" xlink:href="#aM"/><use transform="matrix(0.07407407407407408,0,0,0.07407407407407408,128.66666666666666,0)" xlink:href="#ae"/><use transform="matrix(0.07407407407407408,0,0,0.07407407407407408,143.48148148148147,0)" xlink:href="#aF"/><use transform="matrix(0.07407407407407408,0,0,0.07407407407407408,158.29629629629628,0)" xlink:href="#aC"/><use transform="matrix(0.07407407407407408,0,0,0.07407407407407408,165.7037037037037,0)" xlink:href="#ai"/><use transform="matrix(0.07407407407407408,0,0,0.07407407407407408,180.5185185185185,0)" xlink:href="#aF"/><use transform="matrix(0.07407407407407408,0,0,0.07407407407407408,195.33333333333331,0)" xlink:href="#aC"/></g><filter id="t" filterUnits="objectBoundingBox" x="-.04" y="-.07" width="1.08" height="1.33"><feOffset result="offOut" in="SourceAlpha" dy="6"/><feGaussianBlur result="blurOut" in="offOut" stdDeviation="5"/><feColorMatrix result="colorOut" in="blurOut" values="0 0 0 0 0 0 0 0 0 0 0 0 0 0 0 0 0 0 0.16862745098039217 0"/><feBlend in="SourceGraphic" in2="colorOut"/></filter><path fill="#3d4752" d="M30-248c118-7 216 8 213 122C240-48 200 0 122 0H30v-248zM63-27c89 8 146-16 146-99s-60-101-146-95v194" id="be"/><g id="v"><use transform="matrix(0.07407407407407408,0,0,0.07407407407407408,0,0)" xlink:href="#bd"/><use transform="matrix(0.07407407407407408,0,0,0.07407407407407408,13.333333333333336,0)" xlink:href="#ae"/><use transform="matrix(0.07407407407407408,0,0,0.07407407407407408,28.148148148148152,0)" xlink:href="#aI"/><use transform="matrix(0.07407407407407408,0,0,0.07407407407407408,50.296296296296305,0)" xlink:href="#aI"/><use transform="matrix(0.07407407407407408,0,0,0.07407407407407408,72.44444444444446,0)" xlink:href="#ai"/><use transform="matrix(0.07407407407407408,0,0,0.07407407407407408,87.25925925925927,0)" xlink:href="#aF"/><use transform="matrix(0.07407407407407408,0,0,0.07407407407407408,102.07407407407408,0)" xlink:href="#aC"/><use transform="matrix(0.07407407407407408,0,0,0.07407407407407408,109.48148148148148,0)" xlink:href="#be"/><use transform="matrix(0.07407407407407408,0,0,0.07407407407407408,128.66666666666666,0)" xlink:href="#aE"/><use transform="matrix(0.07407407407407408,0,0,0.07407407407407408,143.48148148148147,0)" xlink:href="#aC"/><use transform="matrix(0.07407407407407408,0,0,0.07407407407407408,150.88888888888889,0)" xlink:href="#ai"/></g><path fill="#3d4752" d="M108 0H70L1-190h34L89-25l56-165h34" id="bf"/><g id="w"><use transform="matrix(0.07407407407407408,0,0,0.07407407407407408,0,0)" xlink:href="#aH"/><use transform="matrix(0.07407407407407408,0,0,0.07407407407407408,17.77777777777778,0)" xlink:href="#bf"/><use transform="matrix(0.07407407407407408,0,0,0.07407407407407408,31.111111111111114,0)" xlink:href="#ai"/><use transform="matrix(0.07407407407407408,0,0,0.07407407407407408,45.92592592592593,0)" xlink:href="#aF"/><use transform="matrix(0.07407407407407408,0,0,0.07407407407407408,60.74074074074075,0)" xlink:href="#aC"/><use transform="matrix(0.07407407407407408,0,0,0.07407407407407408,68.14814814814815,0)" xlink:href="#aJ"/></g><g id="y"><use transform="matrix(0.07407407407407408,0,0,0.07407407407407408,0,0)" xlink:href="#ap"/><use transform="matrix(0.07407407407407408,0,0,0.07407407407407408,14.814814814814817,0)" xlink:href="#av"/><use transform="matrix(0.07407407407407408,0,0,0.07407407407407408,29.629629629629633,0)" xlink:href="#ap"/><use transform="matrix(0.07407407407407408,0,0,0.07407407407407408,44.44444444444445,0)" xlink:href="#ax"/><use transform="matrix(0.07407407407407408,0,0,0.07407407407407408,60.66666666666667,0)" xlink:href="#au"/><use transform="matrix(0.07407407407407408,0,0,0.07407407407407408,69.4814814814815,0)" xlink:href="#aq"/><use transform="matrix(0.07407407407407408,0,0,0.07407407407407408,76.8888888888889,0)" xlink:href="#ar"/><path fill="#3d4752" d="M-1.33 1.43h95.78v2.8H-1.33z"/></g><filter id="x" filterUnits="objectBoundingBox" x="-.08" y="-.07" width="1.17" height="1.33"><feOffset result="offOut" in="SourceAlpha" dy="6"/><feGaussianBlur result="blurOut" in="offOut" stdDeviation="5"/><feColorMatrix result="colorOut" in="blurOut" values="0 0 0 0 0 0 0 0 0 0 0 0 0 0 0 0 0 0 0.16862745098039217 0"/><feBlend in="SourceGraphic" in2="colorOut"/></filter><g id="z"><use transform="matrix(0.07407407407407408,0,0,0.07407407407407408,0,0)" xlink:href="#aR"/><use transform="matrix(0.07407407407407408,0,0,0.07407407407407408,14.814814814814817,0)" xlink:href="#aV"/><use transform="matrix(0.07407407407407408,0,0,0.07407407407407408,28.148148148148152,0)" xlink:href="#aR"/><use transform="matrix(0.07407407407407408,0,0,0.07407407407407408,42.96296296296297,0)" xlink:href="#aS"/><use transform="matrix(0.07407407407407408,0,0,0.07407407407407408,57.777777777777786,0)" xlink:href="#aT"/><use transform="matrix(0.07407407407407408,0,0,0.07407407407407408,65.18518518518519,0)" xlink:href="#aY"/><use transform="matrix(0.07407407407407408,0,0,0.07407407407407408,82.96296296296296,0)" xlink:href="#aZ"/><use transform="matrix(0.07407407407407408,0,0,0.07407407407407408,91.77777777777777,0)" xlink:href="#aP"/><use transform="matrix(0.07407407407407408,0,0,0.07407407407407408,106.59259259259257,0)" xlink:href="#ba"/><use transform="matrix(0.07407407407407408,0,0,0.07407407407407408,113.99999999999999,0)" xlink:href="#bb"/><use transform="matrix(0.07407407407407408,0,0,0.07407407407407408,119.85185185185183,0)" xlink:href="#bc"/><use transform="matrix(0.07407407407407408,0,0,0.07407407407407408,125.70370370370368,0)" xlink:href="#aR"/><use transform="matrix(0.07407407407407408,0,0,0.07407407407407408,140.5185185185185,0)" xlink:href="#aW"/><use transform="matrix(0.07407407407407408,0,0,0.07407407407407408,147.92592592592592,0)" xlink:href="#aX"/><path fill="#3d4752" d="M-1.33 1.85h165.4V3.8H-1.32z"/></g><path fill="#3d4752" d="M127-220V0H93v-220H8v-28h204v28h-85" id="bg"/><g id="A"><use transform="matrix(0.07407407407407408,0,0,0.07407407407407408,0,0)" xlink:href="#ai"/><use transform="matrix(0.07407407407407408,0,0,0.07407407407407408,14.814814814814817,0)" xlink:href="#bf"/><use transform="matrix(0.07407407407407408,0,0,0.07407407407407408,28.148148148148152,0)" xlink:href="#ai"/><use transform="matrix(0.07407407407407408,0,0,0.07407407407407408,42.96296296296297,0)" xlink:href="#aF"/><use transform="matrix(0.07407407407407408,0,0,0.07407407407407408,57.777777777777786,0)" xlink:href="#aC"/><use transform="matrix(0.07407407407407408,0,0,0.07407407407407408,65.18518518518519,0)" xlink:href="#be"/><use transform="matrix(0.07407407407407408,0,0,0.07407407407407408,84.37037037037038,0)" xlink:href="#aE"/><use transform="matrix(0.07407407407407408,0,0,0.07407407407407408,99.1851851851852,0)" xlink:href="#aC"/><use transform="matrix(0.07407407407407408,0,0,0.07407407407407408,106.5925925925926,0)" xlink:href="#ai"/><use transform="matrix(0.07407407407407408,0,0,0.07407407407407408,121.40740740740742,0)" xlink:href="#bg"/><use transform="matrix(0.07407407407407408,0,0,0.07407407407407408,136.66666666666669,0)" xlink:href="#ag"/><use transform="matrix(0.07407407407407408,0,0,0.07407407407407408,142.51851851851853,0)" xlink:href="#aI"/><use transform="matrix(0.07407407407407408,0,0,0.07407407407407408,164.66666666666669,0)" xlink:href="#ai"/></g><g id="B"><use transform="matrix(0.07407407407407408,0,0,0.07407407407407408,0,0)" xlink:href="#ai"/><use transform="matrix(0.07407407407407408,0,0,0.07407407407407408,14.814814814814817,0)" xlink:href="#bf"/><use transform="matrix(0.07407407407407408,0,0,0.07407407407407408,28.148148148148152,0)" xlink:href="#ai"/><use transform="matrix(0.07407407407407408,0,0,0.07407407407407408,42.96296296296297,0)" xlink:href="#aF"/><use transform="matrix(0.07407407407407408,0,0,0.07407407407407408,57.777777777777786,0)" xlink:href="#aC"/><use transform="matrix(0.07407407407407408,0,0,0.07407407407407408,65.18518518518519,0)" xlink:href="#be"/><use transform="matrix(0.07407407407407408,0,0,0.07407407407407408,84.37037037037038,0)" xlink:href="#ai"/><use transform="matrix(0.07407407407407408,0,0,0.07407407407407408,99.1851851851852,0)" xlink:href="#aC"/><use transform="matrix(0.07407407407407408,0,0,0.07407407407407408,106.5925925925926,0)" xlink:href="#aE"/><use transform="matrix(0.07407407407407408,0,0,0.07407407407407408,121.40740740740742,0)" xlink:href="#ag"/><use transform="matrix(0.07407407407407408,0,0,0.07407407407407408,127.25925925925925,0)" xlink:href="#ah"/><use transform="matrix(0.07407407407407408,0,0,0.07407407407407408,133.11111111111111,0)" xlink:href="#aJ"/></g><path fill="#3d4752" d="M30 0v-248h33v221h125V0H30" id="bh"/><g id="C"><use transform="matrix(0.07407407407407408,0,0,0.07407407407407408,0,0)" xlink:href="#ai"/><use transform="matrix(0.07407407407407408,0,0,0.07407407407407408,14.814814814814817,0)" xlink:href="#bf"/><use transform="matrix(0.07407407407407408,0,0,0.07407407407407408,28.148148148148152,0)" xlink:href="#ai"/><use transform="matrix(0.07407407407407408,0,0,0.07407407407407408,42.96296296296297,0)" xlink:href="#aF"/><use transform="matrix(0.07407407407407408,0,0,0.07407407407407408,57.777777777777786,0)" xlink:href="#aC"/><use transform="matrix(0.07407407407407408,0,0,0.07407407407407408,65.18518518518519,0)" xlink:href="#bh"/><use transform="matrix(0.07407407407407408,0,0,0.07407407407407408,80,0)" xlink:href="#ae"/><use transform="matrix(0.07407407407407408,0,0,0.07407407407407408,94.81481481481481,0)" xlink:href="#bd"/><use transform="matrix(0.07407407407407408,0,0,0.07407407407407408,108.14814814814815,0)" xlink:href="#aE"/><use transform="matrix(0.07407407407407408,0,0,0.07407407407407408,122.96296296296296,0)" xlink:href="#aC"/><use transform="matrix(0.07407407407407408,0,0,0.07407407407407408,130.37037037037038,0)" xlink:href="#ag"/><use transform="matrix(0.07407407407407408,0,0,0.07407407407407408,136.22222222222223,0)" xlink:href="#ae"/><use transform="matrix(0.07407407407407408,0,0,0.07407407407407408,151.03703703703704,0)" xlink:href="#aF"/></g><g id="E"><use transform="matrix(0.07407407407407408,0,0,0.07407407407407408,0,0)" xlink:href="#ai"/><use transform="matrix(0.07407407407407408,0,0,0.07407407407407408,14.814814814814817,0)" xlink:href="#bf"/><use transform="matrix(0.07407407407407408,0,0,0.07407407407407408,28.148148148148152,0)" xlink:href="#ai"/><use transform="matrix(0.07407407407407408,0,0,0.07407407407407408,42.96296296296297,0)" xlink:href="#aF"/><use transform="matrix(0.07407407407407408,0,0,0.07407407407407408,57.777777777777786,0)" xlink:href="#aC"/><use transform="matrix(0.07407407407407408,0,0,0.07407407407407408,65.18518518518519,0)" xlink:href="#aL"/><use transform="matrix(0.07407407407407408,0,0,0.07407407407407408,84.37037037037038,0)" xlink:href="#ai"/><use transform="matrix(0.07407407407407408,0,0,0.07407407407407408,99.1851851851852,0)" xlink:href="#aA"/></g><filter id="D" filterUnits="objectBoundingBox" x="-.07" y="-.07" width="1.14" height="1.33"><feOffset result="offOut" in="SourceAlpha" dy="6"/><feGaussianBlur result="blurOut" in="offOut" stdDeviation="5"/><feColorMatrix result="colorOut" in="blurOut" values="0 0 0 0 0 0 0 0 0 0 0 0 0 0 0 0 0 0 0.16862745098039217 0"/><feBlend in="SourceGraphic" in2="colorOut"/></filter><path fill="#3d4752" d="M179-190L93 31C79 59 56 82 12 73V49c39 6 53-20 64-50L1-190h34L92-34l54-156h33" id="bi"/><g id="F"><use transform="matrix(0.07407407407407408,0,0,0.07407407407407408,0,0)" xlink:href="#ai"/><use transform="matrix(0.07407407407407408,0,0,0.07407407407407408,14.814814814814817,0)" xlink:href="#bf"/><use transform="matrix(0.07407407407407408,0,0,0.07407407407407408,28.148148148148152,0)" xlink:href="#ai"/><use transform="matrix(0.07407407407407408,0,0,0.07407407407407408,42.96296296296297,0)" xlink:href="#aF"/><use transform="matrix(0.07407407407407408,0,0,0.07407407407407408,57.777777777777786,0)" xlink:href="#aC"/><use transform="matrix(0.07407407407407408,0,0,0.07407407407407408,65.18518518518519,0)" xlink:href="#bg"/><use transform="matrix(0.07407407407407408,0,0,0.07407407407407408,79.92592592592594,0)" xlink:href="#bi"/><use transform="matrix(0.07407407407407408,0,0,0.07407407407407408,93.25925925925927,0)" xlink:href="#aA"/><use transform="matrix(0.07407407407407408,0,0,0.07407407407407408,108.07407407407408,0)" xlink:href="#ai"/></g><path fill="#3d4752" d="M143 0L79-87 56-68V0H24v-261h32v163l83-92h37l-77 82L181 0h-38" id="bj"/><path fill="#3d4752" d="M16-82v-28h88v28H16" id="bk"/><path fill="#3d4752" d="M33 0v-248h34V0H33" id="bl"/><g id="G"><use transform="matrix(0.07407407407407408,0,0,0.07407407407407408,0,0)" xlink:href="#aM"/><use transform="matrix(0.07407407407407408,0,0,0.07407407407407408,19.185185185185187,0)" xlink:href="#aK"/><use transform="matrix(0.07407407407407408,0,0,0.07407407407407408,34,0)" xlink:href="#ai"/><use transform="matrix(0.07407407407407408,0,0,0.07407407407407408,48.81481481481481,0)" xlink:href="#bd"/><use transform="matrix(0.07407407407407408,0,0,0.07407407407407408,62.14814814814816,0)" xlink:href="#bj"/><use transform="matrix(0.07407407407407408,0,0,0.07407407407407408,75.4814814814815,0)" xlink:href="#bk"/><use transform="matrix(0.07407407407407408,0,0,0.07407407407407408,84.2962962962963,0)" xlink:href="#bl"/><use transform="matrix(0.07407407407407408,0,0,0.07407407407407408,91.70370370370371,0)" xlink:href="#aF"/></g><path fill="#3d4752" d="M67-158c15-20 31-36 64-36 94 0 33 127 27 194h-32l25-140c3-38-53-32-70-12C52-117 51-51 37 0H6l51-261h31" id="bm"/><path fill="#3d4752" d="M127 0L80-88 50-66 37 0H6l51-261h31L57-100l99-90h39l-93 82L161 0h-34" id="bn"/><g id="H"><use transform="matrix(0.07407407407407408,0,0,0.07407407407407408,0,0)" xlink:href="#aO"/><use transform="matrix(0.07407407407407408,0,0,0.07407407407407408,13.333333333333336,0)" xlink:href="#bm"/><use transform="matrix(0.07407407407407408,0,0,0.07407407407407408,28.148148148148152,0)" xlink:href="#aR"/><use transform="matrix(0.07407407407407408,0,0,0.07407407407407408,42.96296296296297,0)" xlink:href="#aO"/><use transform="matrix(0.07407407407407408,0,0,0.07407407407407408,56.296296296296305,0)" xlink:href="#bn"/><use transform="matrix(0.07407407407407408,0,0,0.07407407407407408,69.62962962962965,0)" xlink:href="#aU"/><use transform="matrix(0.07407407407407408,0,0,0.07407407407407408,87.40740740740742,0)" xlink:href="#aV"/><use transform="matrix(0.07407407407407408,0,0,0.07407407407407408,100.74074074074075,0)" xlink:href="#aR"/><use transform="matrix(0.07407407407407408,0,0,0.07407407407407408,115.55555555555557,0)" xlink:href="#aS"/><use transform="matrix(0.07407407407407408,0,0,0.07407407407407408,130.37037037037038,0)" xlink:href="#aT"/><use transform="matrix(0.07407407407407408,0,0,0.07407407407407408,137.7777777777778,0)" xlink:href="#aW"/><use transform="matrix(0.07407407407407408,0,0,0.07407407407407408,145.18518518518522,0)" xlink:href="#aX"/><path fill="#3d4752" d="M-1.33 1.85h162.67V3.8H-1.33z"/></g><g id="I"><use transform="matrix(0.07407407407407408,0,0,0.07407407407407408,0,0)" xlink:href="#aO"/><use transform="matrix(0.07407407407407408,0,0,0.07407407407407408,13.333333333333336,0)" xlink:href="#bm"/><use transform="matrix(0.07407407407407408,0,0,0.07407407407407408,28.148148148148152,0)" xlink:href="#aR"/><use transform="matrix(0.07407407407407408,0,0,0.07407407407407408,42.96296296296297,0)" xlink:href="#aO"/><use transform="matrix(0.07407407407407408,0,0,0.07407407407407408,56.296296296296305,0)" xlink:href="#bn"/><use transform="matrix(0.07407407407407408,0,0,0.07407407407407408,69.62962962962965,0)" xlink:href="#aY"/><use transform="matrix(0.07407407407407408,0,0,0.07407407407407408,87.40740740740742,0)" xlink:href="#aZ"/><use transform="matrix(0.07407407407407408,0,0,0.07407407407407408,96.22222222222223,0)" xlink:href="#aP"/><use transform="matrix(0.07407407407407408,0,0,0.07407407407407408,111.03703703703704,0)" xlink:href="#ba"/><use transform="matrix(0.07407407407407408,0,0,0.07407407407407408,118.44444444444444,0)" xlink:href="#bb"/><use transform="matrix(0.07407407407407408,0,0,0.07407407407407408,124.29629629629629,0)" xlink:href="#bc"/><use transform="matrix(0.07407407407407408,0,0,0.07407407407407408,130.14814814814815,0)" xlink:href="#aR"/><use transform="matrix(0.07407407407407408,0,0,0.07407407407407408,144.96296296296296,0)" xlink:href="#aW"/><use transform="matrix(0.07407407407407408,0,0,0.07407407407407408,152.37037037037038,0)" xlink:href="#aX"/><path fill="#3d4752" d="M-1.33 1.85h169.85V3.8H-1.33z"/></g><g id="J"><use transform="matrix(0.07407407407407408,0,0,0.07407407407407408,0,0)" xlink:href="#bd"/><use transform="matrix(0.07407407407407408,0,0,0.07407407407407408,13.333333333333336,0)" xlink:href="#aK"/><use transform="matrix(0.07407407407407408,0,0,0.07407407407407408,28.148148148148152,0)" xlink:href="#ai"/><use transform="matrix(0.07407407407407408,0,0,0.07407407407407408,42.96296296296297,0)" xlink:href="#bd"/><use transform="matrix(0.07407407407407408,0,0,0.07407407407407408,56.296296296296305,0)" xlink:href="#bj"/><use transform="matrix(0.07407407407407408,0,0,0.07407407407407408,69.62962962962965,0)" xlink:href="#be"/><use transform="matrix(0.07407407407407408,0,0,0.07407407407407408,88.81481481481484,0)" xlink:href="#aE"/><use transform="matrix(0.07407407407407408,0,0,0.07407407407407408,103.62962962962965,0)" xlink:href="#aC"/><use transform="matrix(0.07407407407407408,0,0,0.07407407407407408,111.03703703703705,0)" xlink:href="#ai"/><use transform="matrix(0.07407407407407408,0,0,0.07407407407407408,125.85185185185186,0)" xlink:href="#bg"/><use transform="matrix(0.07407407407407408,0,0,0.07407407407407408,141.11111111111114,0)" xlink:href="#ag"/><use transform="matrix(0.07407407407407408,0,0,0.07407407407407408,146.962962962963,0)" xlink:href="#aI"/><use transform="matrix(0.07407407407407408,0,0,0.07407407407407408,169.11111111111114,0)" xlink:href="#ai"/></g><g id="K"><use transform="matrix(0.07407407407407408,0,0,0.07407407407407408,0,0)" xlink:href="#bd"/><use transform="matrix(0.07407407407407408,0,0,0.07407407407407408,13.333333333333336,0)" xlink:href="#aK"/><use transform="matrix(0.07407407407407408,0,0,0.07407407407407408,28.148148148148152,0)" xlink:href="#ai"/><use transform="matrix(0.07407407407407408,0,0,0.07407407407407408,42.96296296296297,0)" xlink:href="#bd"/><use transform="matrix(0.07407407407407408,0,0,0.07407407407407408,56.296296296296305,0)" xlink:href="#bj"/><use transform="matrix(0.07407407407407408,0,0,0.07407407407407408,69.62962962962965,0)" xlink:href="#bl"/><use transform="matrix(0.07407407407407408,0,0,0.07407407407407408,77.03703703703705,0)" xlink:href="#aF"/><use transform="matrix(0.07407407407407408,0,0,0.07407407407407408,91.85185185185188,0)" xlink:href="#aL"/><use transform="matrix(0.07407407407407408,0,0,0.07407407407407408,111.03703703703707,0)" xlink:href="#ai"/><use transform="matrix(0.07407407407407408,0,0,0.07407407407407408,125.85185185185186,0)" xlink:href="#aA"/></g><g id="M"><use transform="matrix(0.07407407407407408,0,0,0.07407407407407408,0,0)" xlink:href="#bd"/><use transform="matrix(0.07407407407407408,0,0,0.07407407407407408,13.333333333333336,0)" xlink:href="#aE"/><use transform="matrix(0.07407407407407408,0,0,0.07407407407407408,28.148148148148152,0)" xlink:href="#aF"/></g><g id="N"><use transform="matrix(0.07407407407407408,0,0,0.07407407407407408,0,0)" xlink:href="#aK"/><use transform="matrix(0.07407407407407408,0,0,0.07407407407407408,14.814814814814817,0)" xlink:href="#aE"/><use transform="matrix(0.07407407407407408,0,0,0.07407407407407408,29.629629629629633,0)" xlink:href="#bf"/><use transform="matrix(0.07407407407407408,0,0,0.07407407407407408,42.96296296296297,0)" xlink:href="#ai"/></g><filter id="L" filterUnits="objectBoundingBox" x="-.06" y="-.04" width="1.13" height="1.22"><feOffset result="offOut" in="SourceAlpha" dy="6"/><feGaussianBlur result="blurOut" in="offOut" stdDeviation="5"/><feColorMatrix result="colorOut" in="blurOut" values="0 0 0 0 0 0 0 0 0 0 0 0 0 0 0 0 0 0 0.16862745098039217 0"/><feBlend in="SourceGraphic" in2="colorOut"/></filter><g id="O"><use transform="matrix(0.07407407407407408,0,0,0.07407407407407408,0,0)" xlink:href="#aA"/><use transform="matrix(0.07407407407407408,0,0,0.07407407407407408,14.814814814814817,0)" xlink:href="#ae"/><use transform="matrix(0.07407407407407408,0,0,0.07407407407407408,29.629629629629633,0)" xlink:href="#aJ"/><use transform="matrix(0.07407407407407408,0,0,0.07407407407407408,42.96296296296297,0)" xlink:href="#aC"/></g><path fill="#3d4752" d="M115-194c53 0 69 39 70 98 0 66-23 100-70 100C84 3 66-7 56-30L54 0H23l1-261h32v101c10-23 28-34 59-34zm-8 174c40 0 45-34 45-75 0-40-5-75-45-74-42 0-51 32-51 76 0 43 10 73 51 73" id="bo"/><g id="Q"><use transform="matrix(0.07407407407407408,0,0,0.07407407407407408,0,0)" xlink:href="#bo"/><use transform="matrix(0.07407407407407408,0,0,0.07407407407407408,14.814814814814817,0)" xlink:href="#ai"/></g><g id="R"><use transform="matrix(0.07407407407407408,0,0,0.07407407407407408,0,0)" xlink:href="#aA"/><use transform="matrix(0.07407407407407408,0,0,0.07407407407407408,14.814814814814817,0)" xlink:href="#ae"/><use transform="matrix(0.07407407407407408,0,0,0.07407407407407408,29.629629629629633,0)" xlink:href="#aJ"/><use transform="matrix(0.07407407407407408,0,0,0.07407407407407408,42.96296296296297,0)" xlink:href="#aC"/><use transform="matrix(0.07407407407407408,0,0,0.07407407407407408,50.370370370370374,0)" xlink:href="#ai"/><use transform="matrix(0.07407407407407408,0,0,0.07407407407407408,65.18518518518519,0)" xlink:href="#aG"/></g><filter id="P" filterUnits="objectBoundingBox" x="-.06" y="-.03" width="1.13" height="1.17"><feOffset result="offOut" in="SourceAlpha" dy="6"/><feGaussianBlur result="blurOut" in="offOut" stdDeviation="5"/><feColorMatrix result="colorOut" in="blurOut" values="0 0 0 0 0 0 0 0 0 0 0 0 0 0 0 0 0 0 0.16862745098039217 0"/><feBlend in="SourceGraphic" in2="colorOut"/></filter><g id="T"><use transform="matrix(0.07407407407407408,0,0,0.07407407407407408,0,0)" xlink:href="#bd"/><use transform="matrix(0.07407407407407408,0,0,0.07407407407407408,13.333333333333336,0)" xlink:href="#aE"/><use transform="matrix(0.07407407407407408,0,0,0.07407407407407408,28.148148148148152,0)" xlink:href="#aF"/></g><g id="U"><use transform="matrix(0.07407407407407408,0,0,0.07407407407407408,0,0)" xlink:href="#bd"/><use transform="matrix(0.07407407407407408,0,0,0.07407407407407408,13.333333333333336,0)" xlink:href="#ad"/><use transform="matrix(0.07407407407407408,0,0,0.07407407407407408,22.148148148148152,0)" xlink:href="#ai"/><use transform="matrix(0.07407407407407408,0,0,0.07407407407407408,36.96296296296297,0)" xlink:href="#aE"/><use transform="matrix(0.07407407407407408,0,0,0.07407407407407408,51.777777777777786,0)" xlink:href="#aC"/><use transform="matrix(0.07407407407407408,0,0,0.07407407407407408,59.18518518518519,0)" xlink:href="#ai"/></g><filter id="S" filterUnits="objectBoundingBox" x="-.05" y="-.05" width="1.1" height="1.25"><feOffset result="offOut" in="SourceAlpha" dy="6"/><feGaussianBlur result="blurOut" in="offOut" stdDeviation="5"/><feColorMatrix result="colorOut" in="blurOut" values="0 0 0 0 0 0 0 0 0 0 0 0 0 0 0 0 0 0 0.16862745098039217 0"/><feBlend in="SourceGraphic" in2="colorOut"/></filter><path fill="#3d4752" d="M27 0v-27h64v-190l-56 39v-29l58-41h29v221h61V0H27" id="bp"/><use transform="matrix(0.07407407407407408,0,0,0.07407407407407408,0,0)" xlink:href="#bp" id="V"/><use transform="matrix(0.07407407407407408,0,0,0.07407407407407408,0,0)" xlink:href="#aF" id="W"/><use transform="matrix(0.07407407407407408,0,0,0.07407407407407408,0,0)" xlink:href="#aF" id="X"/><use transform="matrix(0.07407407407407408,0,0,0.07407407407407408,0,0)" xlink:href="#aI" id="Y"/><use transform="matrix(0.07407407407407408,0,0,0.07407407407407408,0,0)" xlink:href="#bp" id="Z"/><g id="aa"><use transform="matrix(0.07407407407407408,0,0,0.07407407407407408,0,0)" xlink:href="#aK"/><use transform="matrix(0.07407407407407408,0,0,0.07407407407407408,14.814814814814817,0)" xlink:href="#aE"/><use transform="matrix(0.07407407407407408,0,0,0.07407407407407408,29.629629629629633,0)" xlink:href="#bf"/><use transform="matrix(0.07407407407407408,0,0,0.07407407407407408,42.96296296296297,0)" xlink:href="#ai"/></g><g id="ab"><use transform="matrix(0.07407407407407408,0,0,0.07407407407407408,0,0)" xlink:href="#bd"/><use transform="matrix(0.07407407407407408,0,0,0.07407407407407408,13.333333333333336,0)" xlink:href="#aE"/><use transform="matrix(0.07407407407407408,0,0,0.07407407407407408,28.148148148148152,0)" xlink:href="#aF"/></g></defs></g></svg>