<svg xmlns="http://www.w3.org/2000/svg" xmlns:xlink="http://www.w3.org/1999/xlink" xmlns:lucid="lucid" width="3952" height="1760"><g transform="translate(1296 0)" lucid:page-tab-id="YGcM5DNywbTK"><g filter="url(#a)"><path d="M-610 143.6h160v60h-160z" stroke="#3d4752" stroke-width="4" fill="#fff"/><use xlink:href="#b" transform="matrix(1,0,0,1,-605,148.6082005714602) translate(37.33333333333333 30.333333333333336)"/></g><g filter="url(#a)"><path d="M-940 455.6c0 16.58-35.82 30-80 30s-80-13.42-80-30c0-16.56 35.82-30 80-30s80 13.44 80 30z" stroke="#3d4752" stroke-width="4" fill="#fff"/><use xlink:href="#c" transform="matrix(1,0,0,1,-1095,430.6082005714602) translate(22.55555555555555 30.333333333333336)"/></g><g filter="url(#d)"><path d="M-740 545.6c0 22.1-53.73 40-120 40-66.27 0-120-17.9-120-40 0-22.08 53.73-40 120-40 66.27 0 120 17.92 120 40z" stroke="#3d4752" stroke-width="4" fill="#fff"/><use xlink:href="#e" transform="matrix(1,0,0,1,-975,510.6082005714602) translate(27.59259259259261 24.77777777777778)"/><use xlink:href="#f" transform="matrix(1,0,0,1,-975,510.6082005714602) translate(83.20987654320987 54.111111111111114)"/></g><g filter="url(#g)"><path d="M-540 615.6c0 16.58-44.77 30-100 30s-100-13.42-100-30c0-16.56 44.77-30 100-30s100 13.44 100 30z" stroke="#3d4752" stroke-width="4" fill="#fff"/><use xlink:href="#h" transform="matrix(1,0,0,1,-735,590.6082005714602) translate(4.074074074074076 30.333333333333336)"/></g><g filter="url(#a)"><path d="M-280 575.6c0 16.58-35.82 30-80 30s-80-13.42-80-30c0-16.56 35.82-30 80-30s80 13.44 80 30z" stroke="#3d4752" stroke-width="4" fill="#fff"/><use xlink:href="#i" transform="matrix(1,0,0,1,-435,550.6082005714602) translate(5.592592592592595 30.333333333333336)"/></g><g filter="url(#a)"><path d="M-120 515.6c0 16.58-35.82 30-80 30s-80-13.42-80-30c0-16.56 35.82-30 80-30s80 13.44 80 30z" stroke="#3d4752" stroke-width="4" fill="#fff"/><use xlink:href="#j" transform="matrix(1,0,0,1,-275,490.6082005714602) translate(7.740740740740733 30.333333333333336)"/></g><g filter="url(#a)"><path d="M40 455.6c0 16.58-35.82 30-80 30s-80-13.42-80-30c0-16.56 35.82-30 80-30s80 13.44 80 30z" stroke="#3d4752" stroke-width="4" fill="#fff"/><use xlink:href="#k" transform="matrix(1,0,0,1,-115,430.6082005714602) translate(14.407407407407405 30.333333333333336)"/></g><path d="M-612 157.6h-371.67v247.77" stroke="#494949" stroke-width="4" fill="none"/><path d="M-610 159.6h-2v-4h2zM-983.67 420.37l-4.64-14.27h9.26z" fill="#494949"/><path d="M-983.67 426.84l-7.4-22.74h14.8zm-1.88-18.74l1.88 5.8 1.88-5.8zM-568.63 508.6h-97.88v54.85h-4V504.6h97.87v-299h4zM-568.63 205.6h-4v-2h4zM-668.5 578.45l-4.65-14.27h9.27z" fill="#494949"/><path d="M-668.5 584.92l-7.4-22.74h14.78zm-1.9-18.74l1.9 5.8 1.87-5.8z" fill="#494949"/><path d="M-612 188.6h-248v293.54" stroke="#494949" stroke-width="4" fill="none"/><path d="M-610 190.6h-2v-4h2zM-860 497.14l-4.64-14.27h9.28z" fill="#494949"/><path d="M-860 503.6l-7.4-22.73h14.8zm-1.88-18.73l1.88 5.8 1.88-5.8z" fill="#494949"/><path d="M-448 158.6h408v243.54" stroke="#494949" stroke-width="4" fill="none"/><path d="M-448 160.6h-2v-4h2zM-40 417.14l-4.64-14.27h9.28z" fill="#494949"/><path d="M-40 423.6l-7.4-22.73h14.8zm-1.88-18.73l1.88 5.8 1.88-5.8z" fill="#494949"/><path d="M-485.3 205.6v169H-360v147.54" stroke="#494949" stroke-width="4" fill="none"/><path d="M-483.3 205.6h-4v-2h4zM-360 537.14l-4.64-14.27h9.28z" fill="#494949"/><path d="M-360 543.6l-7.4-22.73h14.8zm-1.88-18.73l1.88 5.8 1.88-5.8z" fill="#494949"/><path d="M-448 189.6h248v272.54" stroke="#494949" stroke-width="4" fill="none"/><path d="M-448 191.6h-2v-4h2zM-200 477.14l-4.64-14.27h9.28z" fill="#494949"/><path d="M-200 483.6l-7.4-22.73h14.8zm-1.88-18.73l1.88 5.8 1.88-5.8z" fill="#494949"/><g filter="url(#l)"><path d="M1400 194c0 16.57-40.3 30-90 30s-90-13.43-90-30 40.3-30 90-30 90 13.43 90 30z" stroke="#3d4752" stroke-width="4" fill="#fff"/><use xlink:href="#m" transform="matrix(1,0,0,1,1225,169) translate(14.037037037037038 30.333333333333336)"/></g><g filter="url(#n)"><path d="M1508 290c0 16.57-51.04 30-114 30s-114-13.43-114-30 51.04-30 114-30 114 13.43 114 30z" stroke="#3d4752" stroke-width="4" fill="#fff"/><use xlink:href="#o" transform="matrix(1,0,0,1,1285,265) translate(9.074074074074062 30.333333333333336)"/></g><g filter="url(#p)"><path d="M2183 510c0 16.57-53.73 30-120 30-66.27 0-120-13.43-120-30s53.73-30 120-30c66.27 0 120 13.43 120 30z" stroke="#3d4752" stroke-width="4" fill="#fff"/><use xlink:href="#q" transform="matrix(1,0,0,1,1948,484.99999999999994) translate(11.481481481481481 30.333333333333336)"/></g><g filter="url(#r)"><path d="M2128 263.15c0 16.57-53.73 30-120 30-66.27 0-120-13.43-120-30s53.73-30 120-30c66.27 0 120 13.43 120 30z" stroke="#3d4752" stroke-width="4" fill="#fff"/><use xlink:href="#s" transform="matrix(1,0,0,1,1893,238.15104299999996) translate(13.629629629629633 30.333333333333336)"/></g><g filter="url(#g)"><path d="M2365 234c0 16.57-44.77 30-100 30s-100-13.43-100-30 44.77-30 100-30 100 13.43 100 30z" stroke="#3d4752" stroke-width="4" fill="#fff"/><use xlink:href="#t" transform="matrix(1,0,0,1,2170,209) translate(12.148148148148152 30.333333333333336)"/></g><path d="M1738 87.64h-428v52.9" stroke="#494949" stroke-width="4" fill="none"/><path d="M1740 89.64h-2v-4h2zM1310 155.53l-4.64-14.27h9.28z" fill="#494949"/><path d="M1310 162l-7.4-22.74h14.8zm-1.88-18.74l1.88 5.8 1.88-5.8zM1738 108.3h-112V292h-94.53v-4H1622V104.3h116zM1740 108.3h-2v-4h2zM1530.74 294.64l-14.27-4.64 14.27-4.64z" fill="#494949"/><path d="M1532.74 297.4L1510 290l22.74-7.4zm-9.8-7.4l5.8 1.88v-3.76z" fill="#494949"/><path d="M1902 106.3h106v103.38" stroke="#494949" stroke-width="4" fill="none"/><path d="M1902 108.3h-2v-4h2zM2008 224.68l-4.64-14.27h9.28z" fill="#494949"/><path d="M2008 231.15l-7.4-22.74h14.8zm-1.88-18.74l1.88 5.8 1.88-5.8z" fill="#494949"/><path d="M1820 148.3V350h243v106.53" stroke="#494949" stroke-width="4" fill="none"/><path d="M1822 148.3h-4v-2h4zM2063 471.53l-4.64-14.27h9.28z" fill="#494949"/><path d="M2063 478l-7.4-22.74h14.8zm-1.88-18.74l1.88 5.8 1.88-5.8z" fill="#494949"/><path d="M1902 86.3h352.2v94.47" stroke="#494949" stroke-width="4" fill="none"/><path d="M1902 88.3h-2v-4h2zM2254.2 195.77l-4.64-14.26h9.27z" fill="#494949"/><path d="M2254.2 202.24l-7.4-22.73h14.78zm-1.9-18.73l1.9 5.8 1.88-5.8z" fill="#494949"/><g filter="url(#a)"><path d="M1699.23 835.88h160v60h-160z" stroke="#3d4752" stroke-width="4" fill="#fff"/><use xlink:href="#u" transform="matrix(1,0,0,1,1704.226595075917,840.8758696899691) translate(40.925925925925924 30.333333333333336)"/></g><g filter="url(#v)"><path d="M1320 852.8c0 16.57-26.86 30-60 30s-60-13.43-60-30c0-16.56 26.86-30 60-30s60 13.44 60 30z" stroke="#3d4752" stroke-width="4" fill="#fff"/><use xlink:href="#w" transform="matrix(1,0,0,1,1205,827.8041002857302) translate(8.444444444444436 30.333333333333336)"/></g><g filter="url(#l)"><path d="M1420 954c0 16.57-40.3 30-90 30s-90-13.43-90-30 40.3-30 90-30 90 13.43 90 30z" stroke="#3d4752" stroke-width="4" fill="#fff"/><use xlink:href="#x" transform="matrix(1,0,0,1,1245,929.0000000000002) translate(3.6296296296296333 30.333333333333336)"/></g><g filter="url(#g)"><path d="M1600 1022c0 16.57-44.77 30-100 30s-100-13.43-100-30 44.77-30 100-30 100 13.43 100 30z" stroke="#3d4752" stroke-width="4" fill="#fff"/><use xlink:href="#y" transform="matrix(1,0,0,1,1405,997.0000000000001) translate(5.259259259259252 30.333333333333336)"/></g><g filter="url(#a)"><path d="M2325 1148c0 16.57-35.82 30-80 30s-80-13.43-80-30 35.82-30 80-30 80 13.43 80 30z" stroke="#3d4752" stroke-width="4" fill="#fff"/><use xlink:href="#z" transform="matrix(1,0,0,1,2170,1123) translate(1.7777777777777715 30.333333333333336)"/></g><g filter="url(#l)"><path d="M2445 1078c0 16.57-40.3 30-90 30s-90-13.43-90-30 40.3-30 90-30 90 13.43 90 30z" stroke="#3d4752" stroke-width="4" fill="#fff"/><use xlink:href="#A" transform="matrix(1,0,0,1,2270,1053) translate(2.074074074074076 30.333333333333336)"/></g><g filter="url(#B)"><path d="M2280 880c0 16.57-31.34 30-70 30s-70-13.43-70-30 31.34-30 70-30 70 13.43 70 30z" stroke="#3d4752" stroke-width="4" fill="#fff"/><use xlink:href="#C" transform="matrix(1,0,0,1,2145,855.0000000000001) translate(8 30.333333333333336)"/></g><g filter="url(#a)"><path d="M2440 820c0 16.57-35.82 30-80 30s-80-13.43-80-30 35.82-30 80-30 80 13.43 80 30z" stroke="#3d4752" stroke-width="4" fill="#fff"/><use xlink:href="#D" transform="matrix(1,0,0,1,2285,795.0000000000001) translate(13.555555555555557 30.333333333333336)"/></g><path d="M1697.23 845.88H1509.6v6.92h-166.13" stroke="#494949" stroke-width="4" fill="none"/><path d="M1699.23 847.88h-2v-4h2zM1342.74 857.44l-14.27-4.64 14.27-4.63z" fill="#494949"/><path d="M1344.74 860.2l-22.74-7.4 22.74-7.38zm-9.8-7.4l5.8 1.9v-3.78z" fill="#494949"/><path d="M1697.23 882.54H1559.6V954h-116.13" stroke="#494949" stroke-width="4" fill="none"/><path d="M1699.23 884.54h-2v-4h2zM1442.74 958.64l-14.27-4.64 14.27-4.64z" fill="#494949"/><path d="M1444.74 961.4L1422 954l22.74-7.4zm-9.8-7.4l5.8 1.88v-3.76zM2256.53 822H2071.6v25.88h-210.37v-4h206.38V818h188.93zM1861.23 847.88h-2v-4h2zM2271.53 820l-14.27 4.64v-9.28z" fill="#494949"/><path d="M2278 820l-22.74 7.4v-14.8zm-18.74 1.88l5.8-1.88-5.8-1.88z" fill="#494949"/><path d="M1861.23 879.88h68v.12h187.3" stroke="#494949" stroke-width="4" fill="none"/><path d="M1861.23 881.88h-2v-4h2zM2131.53 880l-14.27 4.64v-9.28z" fill="#494949"/><path d="M2138 880l-22.74 7.4v-14.8zm-18.74 1.88l5.8-1.88-5.8-1.88z" fill="#494949"/><path d="M1837.9 897.88v74.34h500.26v52.88" stroke="#494949" stroke-width="4" fill="none"/><path d="M1839.9 897.88h-4v-2h4zM2338.16 1040.1l-4.64-14.27h9.27z" fill="#494949"/><path d="M2338.16 1046.57l-7.4-22.74h14.8zm-1.88-18.74l1.88 5.8 1.88-5.8z" fill="#494949"/><path d="M1814.23 897.88v109.06H2245v87.6" stroke="#494949" stroke-width="4" fill="none"/><path d="M1816.23 897.88h-4v-2h4zM2245 1109.53l-4.64-14.27h9.28z" fill="#494949"/><path d="M2245 1116l-7.4-22.74h14.8zm-1.88-18.74l1.88 5.8 1.88-5.8z" fill="#494949"/><path d="M1717.9 897.88V1022h-94.43" stroke="#494949" stroke-width="4" fill="none"/><path d="M1719.9 897.88h-4v-2h4zM1622.74 1026.64l-14.27-4.64 14.27-4.64z" fill="#494949"/><path d="M1624.74 1029.4L1602 1022l22.74-7.4zm-9.8-7.4l5.8 1.88v-3.76z" fill="#494949"/><g filter="url(#g)"><path d="M-240 1278.4c0 16.56-44.77 30-100 30s-100-13.44-100-30c0-16.58 44.77-30 100-30s100 13.42 100 30z" stroke="#3d4752" stroke-width="4" fill="#fff"/><use xlink:href="#E" transform="matrix(1,0,0,1,-435,1253.3917994285398) translate(3.8888888888888715 30.333333333333336)"/></g><g filter="url(#F)"><path d="M-60 1344.2c0 19.77-44.77 35.8-100 35.8s-100-16.03-100-35.8c0-19.78 44.77-35.8 100-35.8s100 16.02 100 35.8z" stroke="#3d4752" stroke-width="4" fill="#fff"/><use xlink:href="#G" transform="matrix(1,0,0,1,-255,1313.3917994285398) translate(0.7962962962962905 36.333333333333336)"/></g><g filter="url(#H)"><path d="M200 1344.2c0 19.77-49.25 35.8-110 35.8s-110-16.03-110-35.8c0-19.78 49.25-35.8 110-35.8s110 16.02 110 35.8z" stroke="#3d4752" stroke-width="4" fill="#fff"/><use xlink:href="#I" transform="matrix(1,0,0,1,-14.999999999999773,1313.3917994285398) translate(1.9259259259259096 36.333333333333336)"/></g><g filter="url(#a)"><path d="M340 1278.4c0 16.56-35.82 30-80 30s-80-13.44-80-30c0-16.58 35.82-30 80-30s80 13.42 80 30z" stroke="#3d4752" stroke-width="4" fill="#fff"/><use xlink:href="#J" transform="matrix(1,0,0,1,185,1253.3917994285398) translate(4.666666666666657 30.333333333333336)"/></g><path d="M-115.88 1159.18H-340v65.74" stroke="#494949" stroke-width="4" fill="none"/><path d="M-113.88 1161.18h-2v-4h2zM-340 1239.92l-4.64-14.27h9.28z" fill="#494949"/><path d="M-340 1246.4l-7.4-22.75h14.8zm-1.88-18.75l1.88 5.8 1.88-5.8z" fill="#494949"/><path d="M-88.54 1191.18v57.6H-160v36.14" stroke="#494949" stroke-width="4" fill="none"/><path d="M-86.54 1191.18h-4v-2h4zM-160 1299.92l-4.64-14.27h9.28z" fill="#494949"/><path d="M-160 1306.4l-7.4-22.75h14.8zm-1.88-18.75l1.88 5.8 1.88-5.8z" fill="#494949"/><path d="M8.8 1191.18v57.6H90v36.14" stroke="#494949" stroke-width="4" fill="none"/><path d="M10.8 1191.18h-4v-2h4zM90 1299.92l-4.64-14.27h9.28z" fill="#494949"/><path d="M90 1306.4l-7.4-22.75h14.8zm-1.88-18.75l1.88 5.8 1.88-5.8z" fill="#494949"/><path d="M48.12 1159.18H260v65.74" stroke="#494949" stroke-width="4" fill="none"/><path d="M48.12 1161.18h-2v-4h2zM260 1239.92l-4.64-14.27h9.28z" fill="#494949"/><path d="M260 1246.4l-7.4-22.75h14.8zm-1.88-18.75l1.88 5.8 1.88-5.8z" fill="#494949"/><g filter="url(#K)"><path d="M864.6 1171.43h160v80h-160z" stroke="#3d4752" stroke-width="4" fill="#fff"/><use xlink:href="#L" transform="matrix(1,0,0,1,869.60624859983,1176.4264218128374) translate(21 40.333333333333336)"/></g><g filter="url(#K)"><path d="M625.14 1131.43c0 22.1-35.82 40-80 40s-80-17.9-80-40 35.82-40 80-40 80 17.9 80 40z" stroke="#3d4752" stroke-width="4" fill="#fff"/><use xlink:href="#M" transform="matrix(1,0,0,1,470.13842647718,1096.4264218128374) translate(12.81481481481481 40.333333333333336)"/></g><g filter="url(#N)"><path d="M665.14 1251.43c0 22.1-44.77 40-100 40s-100-17.9-100-40 44.77-40 100-40 100 17.9 100 40z" stroke="#3d4752" stroke-width="4" fill="#fff"/><use xlink:href="#O" transform="matrix(1,0,0,1,470.13842647718,1216.4264218128374) translate(8.444444444444443 40.333333333333336)"/></g><g filter="url(#P)"><path d="M765.14 1011.43c0 22.1-40.3 40-90 40s-90-17.9-90-40 40.3-40 90-40 90 17.9 90 40z" stroke="#3d4752" stroke-width="4" fill="#fff"/><use xlink:href="#Q" transform="matrix(1,0,0,1,590.1384264771802,976.4264218128372) translate(5.074074074074076 40.333333333333336)"/></g><g filter="url(#K)"><path d="M1862.86 1566.36l80 40-80 40-80-40z" stroke="#3d4752" stroke-width="4" fill="#fff"/><use xlink:href="#R" transform="matrix(1,0,0,1,1787.86157352282,1571.3601983100307) translate(20.925925925925917 40.333333333333336)"/><use xlink:href="#S" transform="matrix(1,0,0,1,1787.86157352282,1571.3601983100307) translate(71.2962962962963 40.333333333333336)"/></g><g filter="url(#T)"><path d="M570 343.6l80 41-80 41-80-41z" stroke="#3d4752" stroke-width="4" fill="#fff"/><use xlink:href="#R" transform="matrix(1,0,0,1,495,348.6082005714602) translate(12.777777777777771 41.333333333333336)"/><use xlink:href="#U" transform="matrix(1,0,0,1,495,348.6082005714602) translate(63.14814814814815 41.333333333333336)"/></g><path d="M572 319.9h-4V103.6H166v-4h406zM121.7 103.6H-480.1v38h-4v-42H121.7zM-480.08 143.6h-4v-2h4zM570 334.9l-4.64-14.28h9.28z" fill="#494949"/><path d="M570 341.36l-7.4-22.74h14.8zm-1.88-18.74l1.88 5.8 1.88-5.8z" fill="#494949"/><use xlink:href="#V" transform="matrix(1,0,0,1,121.69055889447418,69.6082005714602) translate(0.004999999999999005 42.66666666666667)"/><path d="M1781.23 620.13V812.4h-4V624.13h-570.75v-4zm-604.38 0v4H602.1V410.38h4v209.75zM606.1 410.38h-4v-1.22l3.47-1.78h.53zM1779.23 827.4l-4.64-14.26h9.26z" fill="#494949"/><path d="M1779.23 833.88l-7.4-22.74h14.78zm-1.9-18.74l1.9 5.8 1.88-5.8z" fill="#494949"/><use xlink:href="#W" transform="matrix(1,0,0,1,1176.8501180025128,590.1267519793137) translate(0.005000000000000782 42.66666666666667)"/><path d="M-508 491.48v268.4h-4v-234.4h2.45v-34zm-45.85-30v34h-1.55V205.6h4V461.5zM-551.4 205.6h-4v-2h4zM-510 774.88l-4.64-14.26h9.28z" fill="#494949"/><path d="M-510 781.35l-7.4-22.73h14.8zm-1.88-18.73l1.88 5.8 1.88-5.8z" fill="#494949"/><use xlink:href="#V" transform="matrix(1,0,0,1,-553.8481481481481,461.4806760714602) translate(0.004999999999999005 42.66666666666667)"/><g filter="url(#X)"><path d="M-510 783.6l80 41.68-80 41.67-80-41.67z" stroke="#3d4752" stroke-width="4" fill="#fff"/><use xlink:href="#Y" transform="matrix(1,0,0,1,-585,788.6082005714602) translate(20.925925925925917 42.333333333333336)"/><use xlink:href="#Z" transform="matrix(1,0,0,1,-585,788.6082005714602) translate(71.2962962962963 42.333333333333336)"/></g><path d="M-32.38 988v107.7h-4V992H-263.5v-4zm-260.75 0v4h-231.12V862.82h4V988zM-520.25 861.6v1.22h-4v-3h.57zM-34.38 1110.7l-4.63-14.26h9.26z" fill="#494949"/><path d="M-34.38 1117.18l-7.4-22.74h14.8zm-1.88-18.74l1.88 5.8 1.9-5.8z" fill="#494949"/><use xlink:href="#W" transform="matrix(1,0,0,1,-293.12634298584175,958) translate(0.005000000000000782 42.66666666666667)"/><path d="M915.94 1169.43v-64.94H743.72v-43.47" stroke="#494949" stroke-width="4" fill="none"/><path d="M917.94 1171.43h-4v-2h4zM748.36 1060.3h-9.27l4.62-14.27z" fill="#494949"/><path d="M751.1 1062.3h-14.76l7.38-22.74zm-9.26-4h3.77l-1.88-5.8z" fill="#494949"/><path d="M862.6 1211.43H744.88v-80H648.6" stroke="#494949" stroke-width="4" fill="none"/><path d="M864.6 1213.43h-2v-4h2zM647.88 1136.06l-14.27-4.63 14.28-4.64z" fill="#494949"/><path d="M649.88 1138.8l-22.74-7.37 22.74-7.4zm-9.8-7.37l5.8 1.88v-3.76z" fill="#494949"/><path d="M899.94 1253.43v71.14H628.1v-18.52" stroke="#494949" stroke-width="4" fill="none"/><path d="M901.94 1253.43h-4v-2h4zM632.73 1305.3h-9.27l4.64-14.25z" fill="#494949"/><path d="M635.5 1307.3h-14.8l7.4-22.73zm-9.28-4h3.76l-1.88-5.78zM1864.86 1229v335.12h-4V1233h-33.57v-4zm-67.2 0v4h-37.57V919.35h4V1229zM1864.86 1567.12h-.47l-1.54-.76-1.53.76h-.47v-3h4zM1766.72 918.6h-9.27l4.64-14.25z" fill="#494949"/><path d="M1769.48 920.6h-14.78l7.4-22.72zm-9.27-4h3.77l-1.88-5.78z" fill="#494949"/><use xlink:href="#W" transform="matrix(1,0,0,1,1797.6600562459637,1199) translate(0.005000000000000782 42.66666666666667)"/><path d="M1406.73 1604.36h354.66v4h-358.67V1376.5h4zm0-291.86h-4v-99.07H1026.6v-4h380.13zM1026.6 1213.43h-2v-4h2zM1776.4 1606.36l-14.28 4.64v-9.28z" fill="#494949"/><path d="M1782.86 1606.36l-22.74 7.4v-14.8zm-18.74 1.88l5.8-1.88-5.8-1.88z" fill="#494949"/><use xlink:href="#aa" transform="matrix(1,0,0,1,1389.9190962465102,1312.5008282485433) translate(0.005000000000000782 42.66666666666667)"/><g filter="url(#ab)"><path d="M-31 683.6l141 45-141 45-141-45z" stroke="#3d4752" stroke-width="4" fill="#fff"/><use xlink:href="#Y" transform="matrix(1,0,0,1,-167,688.6082005714602) translate(56.074074074074076 45.333333333333336)"/><use xlink:href="#ac" transform="matrix(1,0,0,1,-167,688.6082005714602) translate(106.44444444444446 45.333333333333336)"/></g><path d="M-104.1 663.48V684h-4V667.5h-168.15v-4zM-458 433.54v229.94h137.45v4H-462V437.54h-70V205.6h4v227.94zM-528 205.6h-4v-2h4zM-106.1 699l-4.64-14.26h9.27z" fill="#494949"/><path d="M-106.1 705.48l-7.4-22.74h14.8zm-1.88-18.74l1.88 5.8 1.88-5.8z" fill="#494949"/><use xlink:href="#V" transform="matrix(1,0,0,1,-320.5481481481479,633.4773273511379) translate(0.004999999999999005 42.66666666666667)"/><path d="M1735.83 812.4h-4V672.8H973.65v-4h762.18zm-791.8-139.6H62.76v38h-4v-42h885.25zM62.77 713.54l-4-1.28v-1.46h4zM1733.83 827.4l-4.64-14.26h9.26z" fill="#494949"/><path d="M1733.83 833.88l-7.4-22.74h14.78zm-1.9-18.74l1.9 5.8 1.88-5.8z" fill="#494949"/><use xlink:href="#W" transform="matrix(1,0,0,1,944.0240208436244,638.798198373091) translate(0.005000000000000782 42.66666666666667)"/><path d="M1922 374v208.23h-4V378h-122.25v-4zm-146.4-52.5h-4V148.3h4zM1775.6 148.3h-4v-2h4zM1920 597.23l-4.64-14.27h9.28z" fill="#494949"/><path d="M1920 603.7l-7.4-22.74h14.8zm-1.88-18.74l1.88 5.8 1.88-5.8z" fill="#494949"/><use xlink:href="#V" transform="matrix(1,0,0,1,1751.4518518518516,321.4952001489109) translate(0.004999999999999005 42.66666666666667)"/><g filter="url(#ad)"><path d="M1920 606l100 57-100 57-100-57z" stroke="#3d4752" stroke-width="4" fill="#fff"/><use xlink:href="#R" transform="matrix(1,0,0,1,1825,611) translate(11.29629629629629 58.13333333333333)"/><use xlink:href="#ae" transform="matrix(1,0,0,1,1825,611) translate(61.66666666666667 58.13333333333333)"/><use xlink:href="#af" transform="matrix(1,0,0,1,1825,611) translate(98.70370370370371 58.13333333333333)"/><use xlink:href="#ag" transform="matrix(1,0,0,1,1825,611) translate(83.88888888888889 93.33333333333334)"/></g><path d="M1841 812.4h-4v-24h4zm4.85-88h-4v-45.5h4zM1845.85 677.73v1.16h-4v-3h.77zM1839 827.4l-4.63-14.26h9.27z" fill="#494949"/><path d="M1839 833.88l-7.4-22.74h14.8zm-1.88-18.74l1.88 5.8 1.9-5.8z" fill="#494949"/><use xlink:href="#W" transform="matrix(1,0,0,1,1826.610001702377,724.3853631541467) translate(0.005000000000000782 42.66666666666667)"/><path d="M1729 46.3h181v120h-181z" stroke="#3d4752" stroke-width="4" fill="#fff" filter="url(#ah)"/><g filter="url(#K)"><path d="M1740 66.3h160v80h-160z" stroke="#3d4752" stroke-width="4" fill="#fff"/><use xlink:href="#ai" transform="matrix(1,0,0,1,1745,71.30208600000003) translate(17.333333333333336 40.333333333333336)"/></g><path d="M-129.88 1119.18h191v80h-191z" stroke="#3d4752" stroke-width="4" fill="#fff" filter="url(#aj)"/><g filter="url(#a)"><path d="M-113.88 1129.18h160v60h-160z" stroke="#3d4752" stroke-width="4" fill="#fff"/><use xlink:href="#ak" transform="matrix(1,0,0,1,-108.87694365794624,1134.1753982856196) translate(21.740740740740733 30.333333333333336)"/></g><defs><path fill="#3d4752" d="M30-248c87 1 191-15 191 75 0 78-77 80-158 76V0H30v-248zm33 125c57 0 124 11 124-50 0-59-68-47-124-48v98" id="al"/><path fill="#3d4752" d="M114-163C36-179 61-72 57 0H25l-1-190h30c1 12-1 29 2 39 6-27 23-49 58-41v29" id="am"/><path fill="#3d4752" d="M100-194c62-1 85 37 85 99 1 63-27 99-86 99S16-35 15-95c0-66 28-99 85-99zM99-20c44 1 53-31 53-75 0-43-8-75-51-75s-53 32-53 75 10 74 51 75" id="an"/><path fill="#3d4752" d="M101-234c-31-9-42 10-38 44h38v23H63V0H32v-167H5v-23h27c-7-52 17-82 69-68v24" id="ao"/><path fill="#3d4752" d="M24-231v-30h32v30H24zM24 0v-190h32V0H24" id="ap"/><path fill="#3d4752" d="M24 0v-261h32V0H24" id="aq"/><path fill="#3d4752" d="M100-194c63 0 86 42 84 106H49c0 40 14 67 53 68 26 1 43-12 49-29l28 8c-11 28-37 45-77 45C44 4 14-33 15-96c1-61 26-98 85-98zm52 81c6-60-76-77-97-28-3 7-6 17-6 28h103" id="ar"/><g id="b"><use transform="matrix(0.07407407407407408,0,0,0.07407407407407408,0,0)" xlink:href="#al"/><use transform="matrix(0.07407407407407408,0,0,0.07407407407407408,17.77777777777778,0)" xlink:href="#am"/><use transform="matrix(0.07407407407407408,0,0,0.07407407407407408,26.592592592592595,0)" xlink:href="#an"/><use transform="matrix(0.07407407407407408,0,0,0.07407407407407408,41.40740740740741,0)" xlink:href="#ao"/><use transform="matrix(0.07407407407407408,0,0,0.07407407407407408,48.814814814814824,0)" xlink:href="#ap"/><use transform="matrix(0.07407407407407408,0,0,0.07407407407407408,54.666666666666686,0)" xlink:href="#aq"/><use transform="matrix(0.07407407407407408,0,0,0.07407407407407408,60.51851851851853,0)" xlink:href="#ar"/></g><filter id="a" filterUnits="objectBoundingBox" x="-.06" y="-.07" width="1.13" height="1.33"><feOffset result="offOut" in="SourceAlpha" dy="6"/><feGaussianBlur result="blurOut" in="offOut" stdDeviation="5"/><feColorMatrix result="colorOut" in="blurOut" values="0 0 0 0 0 0 0 0 0 0 0 0 0 0 0 0 0 0 0.16862745098039217 0"/><feBlend in="SourceGraphic" in2="colorOut"/></filter><path fill="#3d4752" d="M135-194c53 0 70 44 70 98 0 56-19 98-73 100-31 1-45-17-59-34 3 33 2 69 2 105H25l-1-265h48c2 10 0 23 3 31 11-24 29-35 60-35zM114-30c33 0 39-31 40-66 0-38-9-64-40-64-56 0-55 130 0 130" id="as"/><path fill="#3d4752" d="M135-150c-39-12-60 13-60 57V0H25l-1-190h47c2 13-1 29 3 40 6-28 27-53 61-41v41" id="at"/><path fill="#3d4752" d="M110-194c64 0 96 36 96 99 0 64-35 99-97 99-61 0-95-36-95-99 0-62 34-99 96-99zm-1 164c35 0 45-28 45-65 0-40-10-65-43-65-34 0-45 26-45 65 0 36 10 65 43 65" id="au"/><path fill="#3d4752" d="M121-226c-27-7-43 5-38 36h38v33H83V0H34v-157H6v-33h28c-9-59 32-81 87-68v32" id="av"/><path fill="#3d4752" d="M25-224v-37h50v37H25zM25 0v-190h50V0H25" id="aw"/><path fill="#3d4752" d="M25 0v-261h50V0H25" id="ax"/><path fill="#3d4752" d="M185-48c-13 30-37 53-82 52C43 2 14-33 14-96s30-98 90-98c62 0 83 45 84 108H66c0 31 8 55 39 56 18 0 30-7 34-22zm-45-69c5-46-57-63-70-21-2 6-4 13-4 21h74" id="ay"/><path fill="#3d4752" d="M24 0v-248h52V0H24" id="az"/><path fill="#3d4752" d="M88-194c31-1 46 15 58 34l-1-101h50l1 261h-48c-2-10 0-23-3-31C134-8 116 4 84 4 32 4 16-41 15-95c0-56 19-97 73-99zm17 164c33 0 40-30 41-66 1-37-9-64-41-64s-38 30-39 65c0 43 13 65 39 65" id="aA"/><g id="c"><use transform="matrix(0.07407407407407408,0,0,0.07407407407407408,0,0)" xlink:href="#as"/><use transform="matrix(0.07407407407407408,0,0,0.07407407407407408,16.222222222222225,0)" xlink:href="#at"/><use transform="matrix(0.07407407407407408,0,0,0.07407407407407408,26.592592592592595,0)" xlink:href="#au"/><use transform="matrix(0.07407407407407408,0,0,0.07407407407407408,42.814814814814824,0)" xlink:href="#av"/><use transform="matrix(0.07407407407407408,0,0,0.07407407407407408,51.62962962962963,0)" xlink:href="#aw"/><use transform="matrix(0.07407407407407408,0,0,0.07407407407407408,59.03703703703705,0)" xlink:href="#ax"/><use transform="matrix(0.07407407407407408,0,0,0.07407407407407408,66.44444444444446,0)" xlink:href="#ay"/><use transform="matrix(0.07407407407407408,0,0,0.07407407407407408,81.25925925925927,0)" xlink:href="#az"/><use transform="matrix(0.07407407407407408,0,0,0.07407407407407408,88.66666666666667,0)" xlink:href="#aA"/><path fill="#3d4752" d="M-1.33 1.43h107.56v2.8H-1.33z"/></g><path fill="#3d4752" d="M199 0l-22-63H83L61 0H9l90-248h61L250 0h-51zm-33-102l-36-108c-10 38-24 72-36 108h72" id="aB"/><path fill="#3d4752" d="M190-63c-7 42-38 67-86 67-59 0-84-38-90-98-12-110 154-137 174-36l-49 2c-2-19-15-32-35-32-30 0-35 28-38 64-6 74 65 87 74 30" id="aC"/><path fill="#3d4752" d="M115-3C79 11 28 4 28-45v-112H4v-33h27l15-45h31v45h36v33H77v99c-1 23 16 31 38 25v30" id="aD"/><path fill="#3d4752" d="M128 0H69L1-190h53L99-40l48-150h52" id="aE"/><path fill="#3d4752" d="M133-34C117-15 103 5 69 4 32 3 11-16 11-54c-1-60 55-63 116-61 1-26-3-47-28-47-18 1-26 9-28 27l-52-2c7-38 36-58 82-57s74 22 75 68l1 82c-1 14 12 18 25 15v27c-30 8-71 5-69-32zm-48 3c29 0 43-24 42-57-32 0-66-3-65 30 0 17 8 27 23 27" id="aF"/><path fill="#3d4752" d="M135-194c87-1 58 113 63 194h-50c-7-57 23-157-34-157-59 0-34 97-39 157H25l-1-190h47c2 12-1 28 3 38 12-26 28-41 61-42" id="aG"/><g id="e"><use transform="matrix(0.06172839506172839,0,0,0.06172839506172839,0,0)" xlink:href="#as"/><use transform="matrix(0.06172839506172839,0,0,0.06172839506172839,13.518518518518517,0)" xlink:href="#at"/><use transform="matrix(0.06172839506172839,0,0,0.06172839506172839,22.160493827160494,0)" xlink:href="#au"/><use transform="matrix(0.06172839506172839,0,0,0.06172839506172839,35.67901234567901,0)" xlink:href="#av"/><use transform="matrix(0.06172839506172839,0,0,0.06172839506172839,43.02469135802469,0)" xlink:href="#aw"/><use transform="matrix(0.06172839506172839,0,0,0.06172839506172839,49.19753086419753,0)" xlink:href="#ax"/><use transform="matrix(0.06172839506172839,0,0,0.06172839506172839,55.370370370370374,0)" xlink:href="#ay"/><use transform="matrix(0.06172839506172839,0,0,0.06172839506172839,67.71604938271605,0)" xlink:href="#aB"/><use transform="matrix(0.06172839506172839,0,0,0.06172839506172839,83.70370370370371,0)" xlink:href="#aC"/><use transform="matrix(0.06172839506172839,0,0,0.06172839506172839,96.0493827160494,0)" xlink:href="#aD"/><use transform="matrix(0.06172839506172839,0,0,0.06172839506172839,103.39506172839508,0)" xlink:href="#aw"/><use transform="matrix(0.06172839506172839,0,0,0.06172839506172839,109.56790123456791,0)" xlink:href="#aE"/><use transform="matrix(0.06172839506172839,0,0,0.06172839506172839,121.9135802469136,0)" xlink:href="#aF"/><use transform="matrix(0.06172839506172839,0,0,0.06172839506172839,134.25925925925927,0)" xlink:href="#aD"/><use transform="matrix(0.06172839506172839,0,0,0.06172839506172839,141.60493827160494,0)" xlink:href="#aw"/><use transform="matrix(0.06172839506172839,0,0,0.06172839506172839,147.77777777777777,0)" xlink:href="#au"/><use transform="matrix(0.06172839506172839,0,0,0.06172839506172839,161.29629629629628,0)" xlink:href="#aG"/></g><path fill="#3d4752" d="M136-208V0H84v-208H4v-40h212v40h-80" id="aH"/><path fill="#3d4752" d="M147 0L96-86 75-71V0H25v-261h50v150l67-79h53l-66 74L201 0h-54" id="aI"/><g id="f"><use transform="matrix(0.06172839506172839,0,0,0.06172839506172839,0,0)" xlink:href="#aH"/><use transform="matrix(0.06172839506172839,0,0,0.06172839506172839,11.851851851851851,0)" xlink:href="#au"/><use transform="matrix(0.06172839506172839,0,0,0.06172839506172839,25.370370370370367,0)" xlink:href="#aI"/><use transform="matrix(0.06172839506172839,0,0,0.06172839506172839,37.716049382716044,0)" xlink:href="#ay"/><use transform="matrix(0.06172839506172839,0,0,0.06172839506172839,50.06172839506172,0)" xlink:href="#aG"/></g><filter id="d" filterUnits="objectBoundingBox" x="-.04" y="-.05" width="1.08" height="1.25"><feOffset result="offOut" in="SourceAlpha" dy="6"/><feGaussianBlur result="blurOut" in="offOut" stdDeviation="5"/><feColorMatrix result="colorOut" in="blurOut" values="0 0 0 0 0 0 0 0 0 0 0 0 0 0 0 0 0 0 0.16862745098039217 0"/><feBlend in="SourceGraphic" in2="colorOut"/></filter><path fill="#3d4752" d="M115-194c55 1 70 41 70 98S169 2 115 4C84 4 66-9 55-30l1 105H24l-1-265h31l2 30c10-21 28-34 59-34zm-8 174c40 0 45-34 45-75s-6-73-45-74c-42 0-51 32-51 76 0 43 10 73 51 73" id="aJ"/><path fill="#3d4752" d="M205 0l-28-72H64L36 0H1l101-248h38L239 0h-34zm-38-99l-47-123c-12 45-31 82-46 123h93" id="aK"/><path fill="#3d4752" d="M59-47c-2 24 18 29 38 22v24C64 9 27 4 27-40v-127H5v-23h24l9-43h21v43h35v23H59v120" id="aL"/><path fill="#3d4752" d="M197 0v-115H63V0H30v-248h33v105h134v-105h34V0h-34" id="aM"/><path fill="#3d4752" d="M141-36C126-15 110 5 73 4 37 3 15-17 15-53c-1-64 63-63 125-63 3-35-9-54-41-54-24 1-41 7-42 31l-33-3c5-37 33-52 76-52 45 0 72 20 72 64v82c-1 20 7 32 28 27v20c-31 9-61-2-59-35zM48-53c0 20 12 33 32 33 41-3 63-29 60-74-43 2-92-5-92 41" id="aN"/><path fill="#3d4752" d="M117-194c89-4 53 116 60 194h-32v-121c0-31-8-49-39-48C34-167 62-67 57 0H25l-1-190h30c1 10-1 24 2 32 11-22 29-35 61-36" id="aO"/><path fill="#3d4752" d="M85-194c31 0 48 13 60 33l-1-100h32l1 261h-30c-2-10 0-23-3-31C134-8 116 4 85 4 32 4 16-35 15-94c0-66 23-100 70-100zm9 24c-40 0-46 34-46 75 0 40 6 74 45 74 42 0 51-32 51-76 0-42-9-74-50-73" id="aP"/><g id="h"><use transform="matrix(0.07407407407407408,0,0,0.07407407407407408,0,0)" xlink:href="#aJ"/><use transform="matrix(0.07407407407407408,0,0,0.07407407407407408,14.814814814814817,0)" xlink:href="#am"/><use transform="matrix(0.07407407407407408,0,0,0.07407407407407408,23.629629629629633,0)" xlink:href="#an"/><use transform="matrix(0.07407407407407408,0,0,0.07407407407407408,38.44444444444445,0)" xlink:href="#ao"/><use transform="matrix(0.07407407407407408,0,0,0.07407407407407408,45.851851851851855,0)" xlink:href="#ap"/><use transform="matrix(0.07407407407407408,0,0,0.07407407407407408,51.70370370370372,0)" xlink:href="#aq"/><use transform="matrix(0.07407407407407408,0,0,0.07407407407407408,57.55555555555557,0)" xlink:href="#ar"/><use transform="matrix(0.07407407407407408,0,0,0.07407407407407408,72.37037037037038,0)" xlink:href="#aK"/><use transform="matrix(0.07407407407407408,0,0,0.07407407407407408,90.14814814814817,0)" xlink:href="#aL"/><use transform="matrix(0.07407407407407408,0,0,0.07407407407407408,97.55555555555556,0)" xlink:href="#aM"/><use transform="matrix(0.07407407407407408,0,0,0.07407407407407408,116.74074074074073,0)" xlink:href="#aN"/><use transform="matrix(0.07407407407407408,0,0,0.07407407407407408,131.55555555555557,0)" xlink:href="#aO"/><use transform="matrix(0.07407407407407408,0,0,0.07407407407407408,146.37037037037038,0)" xlink:href="#aP"/><use transform="matrix(0.07407407407407408,0,0,0.07407407407407408,161.18518518518522,0)" xlink:href="#aq"/><use transform="matrix(0.07407407407407408,0,0,0.07407407407407408,167.03703703703704,0)" xlink:href="#ar"/></g><filter id="g" filterUnits="objectBoundingBox" x="-.05" y="-.07" width="1.1" height="1.33"><feOffset result="offOut" in="SourceAlpha" dy="6"/><feGaussianBlur result="blurOut" in="offOut" stdDeviation="5"/><feColorMatrix result="colorOut" in="blurOut" values="0 0 0 0 0 0 0 0 0 0 0 0 0 0 0 0 0 0 0.16862745098039217 0"/><feBlend in="SourceGraphic" in2="colorOut"/></filter><path fill="#3d4752" d="M30 0v-248h187v28H63v79h144v27H63v87h162V0H30" id="aQ"/><path fill="#3d4752" d="M210-169c-67 3-38 105-44 169h-31v-121c0-29-5-50-35-48C34-165 62-65 56 0H25l-1-190h30c1 10-1 24 2 32 10-44 99-50 107 0 11-21 27-35 58-36 85-2 47 119 55 194h-31v-121c0-29-5-49-35-48" id="aR"/><g id="i"><use transform="matrix(0.07407407407407408,0,0,0.07407407407407408,0,0)" xlink:href="#aJ"/><use transform="matrix(0.07407407407407408,0,0,0.07407407407407408,14.814814814814817,0)" xlink:href="#am"/><use transform="matrix(0.07407407407407408,0,0,0.07407407407407408,23.629629629629633,0)" xlink:href="#an"/><use transform="matrix(0.07407407407407408,0,0,0.07407407407407408,38.44444444444445,0)" xlink:href="#ao"/><use transform="matrix(0.07407407407407408,0,0,0.07407407407407408,45.851851851851855,0)" xlink:href="#ap"/><use transform="matrix(0.07407407407407408,0,0,0.07407407407407408,51.70370370370372,0)" xlink:href="#aq"/><use transform="matrix(0.07407407407407408,0,0,0.07407407407407408,57.55555555555557,0)" xlink:href="#ar"/><use transform="matrix(0.07407407407407408,0,0,0.07407407407407408,72.37037037037038,0)" xlink:href="#aQ"/><use transform="matrix(0.07407407407407408,0,0,0.07407407407407408,90.14814814814817,0)" xlink:href="#aR"/><use transform="matrix(0.07407407407407408,0,0,0.07407407407407408,112.2962962962963,0)" xlink:href="#aN"/><use transform="matrix(0.07407407407407408,0,0,0.07407407407407408,127.11111111111111,0)" xlink:href="#ap"/><use transform="matrix(0.07407407407407408,0,0,0.07407407407407408,132.96296296296296,0)" xlink:href="#aq"/></g><path fill="#3d4752" d="M135-143c-3-34-86-38-87 0 15 53 115 12 119 90S17 21 10-45l28-5c4 36 97 45 98 0-10-56-113-15-118-90-4-57 82-63 122-42 12 7 21 19 24 35" id="aS"/><path fill="#3d4752" d="M106-169C34-169 62-67 57 0H25v-261h32l-1 103c12-21 28-36 61-36 89 0 53 116 60 194h-32v-121c2-32-8-49-39-48" id="aT"/><g id="j"><use transform="matrix(0.07407407407407408,0,0,0.07407407407407408,0,0)" xlink:href="#aJ"/><use transform="matrix(0.07407407407407408,0,0,0.07407407407407408,14.814814814814817,0)" xlink:href="#am"/><use transform="matrix(0.07407407407407408,0,0,0.07407407407407408,23.629629629629633,0)" xlink:href="#an"/><use transform="matrix(0.07407407407407408,0,0,0.07407407407407408,38.44444444444445,0)" xlink:href="#ao"/><use transform="matrix(0.07407407407407408,0,0,0.07407407407407408,45.851851851851855,0)" xlink:href="#ap"/><use transform="matrix(0.07407407407407408,0,0,0.07407407407407408,51.70370370370372,0)" xlink:href="#aq"/><use transform="matrix(0.07407407407407408,0,0,0.07407407407407408,57.55555555555557,0)" xlink:href="#ar"/><use transform="matrix(0.07407407407407408,0,0,0.07407407407407408,72.37037037037038,0)" xlink:href="#aM"/><use transform="matrix(0.07407407407407408,0,0,0.07407407407407408,91.55555555555557,0)" xlink:href="#aN"/><use transform="matrix(0.07407407407407408,0,0,0.07407407407407408,106.37037037037038,0)" xlink:href="#aS"/><use transform="matrix(0.07407407407407408,0,0,0.07407407407407408,119.70370370370372,0)" xlink:href="#aT"/></g><path fill="#3d4752" d="M233-177c-1 41-23 64-60 70L243 0h-38l-65-103H63V0H30v-248c88 3 205-21 203 71zM63-129c60-2 137 13 137-47 0-61-80-42-137-45v92" id="aU"/><g id="k"><use transform="matrix(0.07407407407407408,0,0,0.07407407407407408,0,0)" xlink:href="#aJ"/><use transform="matrix(0.07407407407407408,0,0,0.07407407407407408,14.814814814814817,0)" xlink:href="#am"/><use transform="matrix(0.07407407407407408,0,0,0.07407407407407408,23.629629629629633,0)" xlink:href="#an"/><use transform="matrix(0.07407407407407408,0,0,0.07407407407407408,38.44444444444445,0)" xlink:href="#ao"/><use transform="matrix(0.07407407407407408,0,0,0.07407407407407408,45.851851851851855,0)" xlink:href="#ap"/><use transform="matrix(0.07407407407407408,0,0,0.07407407407407408,51.70370370370372,0)" xlink:href="#aq"/><use transform="matrix(0.07407407407407408,0,0,0.07407407407407408,57.55555555555557,0)" xlink:href="#ar"/><use transform="matrix(0.07407407407407408,0,0,0.07407407407407408,72.37037037037038,0)" xlink:href="#aU"/><use transform="matrix(0.07407407407407408,0,0,0.07407407407407408,91.55555555555557,0)" xlink:href="#ar"/><use transform="matrix(0.07407407407407408,0,0,0.07407407407407408,106.37037037037038,0)" xlink:href="#aJ"/></g><path fill="#3d4752" d="M220-157c-53 9-28 100-34 157h-49v-107c1-27-5-49-29-50C55-147 81-57 75 0H25l-1-190h47c2 12-1 28 3 38 10-53 101-56 108 0 13-22 24-43 59-42 82 1 51 116 57 194h-49v-107c-1-25-5-48-29-50" id="aV"/><g id="m"><use transform="matrix(0.07407407407407408,0,0,0.07407407407407408,0,0)" xlink:href="#aC"/><use transform="matrix(0.07407407407407408,0,0,0.07407407407407408,14.814814814814817,0)" xlink:href="#au"/><use transform="matrix(0.07407407407407408,0,0,0.07407407407407408,31.03703703703704,0)" xlink:href="#aV"/><use transform="matrix(0.07407407407407408,0,0,0.07407407407407408,54.74074074074075,0)" xlink:href="#aV"/><use transform="matrix(0.07407407407407408,0,0,0.07407407407407408,78.44444444444446,0)" xlink:href="#ay"/><use transform="matrix(0.07407407407407408,0,0,0.07407407407407408,93.25925925925927,0)" xlink:href="#aG"/><use transform="matrix(0.07407407407407408,0,0,0.07407407407407408,109.4814814814815,0)" xlink:href="#aD"/><use transform="matrix(0.07407407407407408,0,0,0.07407407407407408,118.29629629629632,0)" xlink:href="#az"/><use transform="matrix(0.07407407407407408,0,0,0.07407407407407408,125.70370370370371,0)" xlink:href="#aA"/><path fill="#3d4752" d="M-1.33 1.43h144.6v2.8H-1.34z"/></g><filter id="l" filterUnits="objectBoundingBox" x="-.06" y="-.07" width="1.11" height="1.33"><feOffset result="offOut" in="SourceAlpha" dy="6"/><feGaussianBlur result="blurOut" in="offOut" stdDeviation="5"/><feColorMatrix result="colorOut" in="blurOut" values="0 0 0 0 0 0 0 0 0 0 0 0 0 0 0 0 0 0 0.16862745098039217 0"/><feBlend in="SourceGraphic" in2="colorOut"/></filter><path fill="#3d4752" d="M44-68c0 29 11 47 38 47 30 0 42-19 51-41l28 9C148-21 126 4 82 4 31 4 10-29 12-85c3-77 74-140 146-93 12 8 15 23 18 40l-31 5c-1-22-13-36-36-36-52 0-65 49-65 101" id="aW"/><path fill="#3d4752" d="M30-147c31-64 166-65 159 27C183-49 158 1 86 4 9 8 1-88 30-147zM88-20c53 0 68-48 68-100 0-31-11-51-44-50-52 1-68 46-68 97 0 32 13 53 44 53" id="aX"/><path fill="#3d4752" d="M248-111c6-24 9-61-24-58-72 9-57 108-77 169h-31l26-142c3-37-50-30-64-10C52-115 50-51 37 0H6l36-190h30c-1 10-6 24-4 32 13-43 101-52 105 5 13-22 29-41 61-41 90 0 28 129 23 194h-31" id="aY"/><path fill="#3d4752" d="M111-194c62-3 86 47 72 106H45c-7 38 6 69 45 68 27-1 43-14 53-32l24 11C152-15 129 4 87 4 38 3 12-23 12-71c0-70 32-119 99-123zm44 81c14-66-71-72-95-28-4 8-8 17-11 28h106" id="aZ"/><path fill="#3d4752" d="M67-158c22-48 132-52 116 29L158 0h-32l25-140c3-38-53-32-70-12C52-117 51-52 38 0H6l36-190h30" id="ba"/><path fill="#3d4752" d="M51-54c-9 22 5 41 31 30L79-1C43 14 10-4 19-52l22-115H19l5-23h22l19-43h21l-9 43h35l-4 23H73" id="bb"/><path fill="#3d4752" d="M11 0l48-248h184l-5 28H87l-15 79h140l-5 27H67L50-27h158l-5 27H11" id="bc"/><path fill="#3d4752" d="M89 0H52L20-190h33L74-25l89-165h34" id="bd"/><path fill="#3d4752" d="M14 0l48-248h34L48 0H14" id="be"/><path fill="#3d4752" d="M133-28C103 26-5 8 13-77c13-62 24-115 90-117 29-1 46 15 56 35l19-102h32L160 0h-30zM45-64c-2 27 10 43 35 43 54-1 69-50 69-103 0-29-15-46-42-46-53-1-58 58-62 106" id="bf"/><g id="o"><use transform="matrix(0.07407407407407408,0,0,0.07407407407407408,0,0)" xlink:href="#aW"/><use transform="matrix(0.07407407407407408,0,0,0.07407407407407408,13.333333333333336,0)" xlink:href="#aX"/><use transform="matrix(0.07407407407407408,0,0,0.07407407407407408,28.148148148148152,0)" xlink:href="#aY"/><use transform="matrix(0.07407407407407408,0,0,0.07407407407407408,50.296296296296305,0)" xlink:href="#aY"/><use transform="matrix(0.07407407407407408,0,0,0.07407407407407408,72.44444444444446,0)" xlink:href="#aZ"/><use transform="matrix(0.07407407407407408,0,0,0.07407407407407408,87.25925925925927,0)" xlink:href="#ba"/><use transform="matrix(0.07407407407407408,0,0,0.07407407407407408,102.07407407407408,0)" xlink:href="#bb"/><use transform="matrix(0.07407407407407408,0,0,0.07407407407407408,109.48148148148148,0)" xlink:href="#bc"/><use transform="matrix(0.07407407407407408,0,0,0.07407407407407408,127.25925925925925,0)" xlink:href="#bd"/><use transform="matrix(0.07407407407407408,0,0,0.07407407407407408,140.5925925925926,0)" xlink:href="#aZ"/><use transform="matrix(0.07407407407407408,0,0,0.07407407407407408,155.40740740740742,0)" xlink:href="#ba"/><use transform="matrix(0.07407407407407408,0,0,0.07407407407407408,170.22222222222226,0)" xlink:href="#bb"/><use transform="matrix(0.07407407407407408,0,0,0.07407407407407408,177.62962962962965,0)" xlink:href="#be"/><use transform="matrix(0.07407407407407408,0,0,0.07407407407407408,185.03703703703707,0)" xlink:href="#bf"/><path fill="#3d4752" d="M-1.33 1.85H201.2V3.8H-1.34z"/></g><filter id="n" filterUnits="objectBoundingBox" x="-.04" y="-.07" width="1.09" height="1.33"><feOffset result="offOut" in="SourceAlpha" dy="6"/><feGaussianBlur result="blurOut" in="offOut" stdDeviation="5"/><feColorMatrix result="colorOut" in="blurOut" values="0 0 0 0 0 0 0 0 0 0 0 0 0 0 0 0 0 0 0.16862745098039217 0"/><feBlend in="SourceGraphic" in2="colorOut"/></filter><path fill="#3d4752" d="M238-179c0 84-86 86-175 82L45 0H11l48-248c82 0 179-12 179 69zm-34 1c0-53-64-42-116-43l-19 98c63 0 135 9 135-55" id="bg"/><path fill="#3d4752" d="M66-151c12-25 30-51 66-40l-6 26C45-176 58-65 38 0H6l36-190h30" id="bh"/><path fill="#3d4752" d="M76-167L44 0H12l33-167H18l4-23h27c3-47 25-81 82-69l-4 24c-35-8-44 15-46 45h37l-5 23H76" id="bi"/><path fill="#3d4752" d="M50-231l6-30h32l-6 30H50zM6 0l37-190h31L37 0H6" id="bj"/><path fill="#3d4752" d="M6 0l50-261h32L37 0H6" id="bk"/><g id="q"><use transform="matrix(0.07407407407407408,0,0,0.07407407407407408,0,0)" xlink:href="#aW"/><use transform="matrix(0.07407407407407408,0,0,0.07407407407407408,13.333333333333336,0)" xlink:href="#aX"/><use transform="matrix(0.07407407407407408,0,0,0.07407407407407408,28.148148148148152,0)" xlink:href="#aY"/><use transform="matrix(0.07407407407407408,0,0,0.07407407407407408,50.296296296296305,0)" xlink:href="#aY"/><use transform="matrix(0.07407407407407408,0,0,0.07407407407407408,72.44444444444446,0)" xlink:href="#aZ"/><use transform="matrix(0.07407407407407408,0,0,0.07407407407407408,87.25925925925927,0)" xlink:href="#ba"/><use transform="matrix(0.07407407407407408,0,0,0.07407407407407408,102.07407407407408,0)" xlink:href="#bb"/><use transform="matrix(0.07407407407407408,0,0,0.07407407407407408,109.48148148148148,0)" xlink:href="#bg"/><use transform="matrix(0.07407407407407408,0,0,0.07407407407407408,127.25925925925925,0)" xlink:href="#bh"/><use transform="matrix(0.07407407407407408,0,0,0.07407407407407408,136.07407407407408,0)" xlink:href="#aX"/><use transform="matrix(0.07407407407407408,0,0,0.07407407407407408,150.88888888888889,0)" xlink:href="#bi"/><use transform="matrix(0.07407407407407408,0,0,0.07407407407407408,158.2962962962963,0)" xlink:href="#bj"/><use transform="matrix(0.07407407407407408,0,0,0.07407407407407408,164.14814814814812,0)" xlink:href="#bk"/><use transform="matrix(0.07407407407407408,0,0,0.07407407407407408,170,0)" xlink:href="#aZ"/><use transform="matrix(0.07407407407407408,0,0,0.07407407407407408,184.8148148148148,0)" xlink:href="#be"/><use transform="matrix(0.07407407407407408,0,0,0.07407407407407408,192.2222222222222,0)" xlink:href="#bf"/><path fill="#3d4752" d="M-1.33 1.85h209.7V3.8H-1.33z"/></g><filter id="p" filterUnits="objectBoundingBox" x="-.04" y="-.07" width="1.08" height="1.33"><feOffset result="offOut" in="SourceAlpha" dy="6"/><feGaussianBlur result="blurOut" in="offOut" stdDeviation="5"/><feColorMatrix result="colorOut" in="blurOut" values="0 0 0 0 0 0 0 0 0 0 0 0 0 0 0 0 0 0 0.16862745098039217 0"/><feBlend in="SourceGraphic" in2="colorOut"/></filter><path fill="#3d4752" d="M96-169c-40 0-48 33-48 73s9 75 48 75c24 0 41-14 43-38l32 2c-6 37-31 61-74 61-59 0-76-41-82-99-10-93 101-131 147-64 4 7 5 14 7 22l-32 3c-4-21-16-35-41-35" id="bl"/><path fill="#3d4752" d="M212-179c-10-28-35-45-73-45-59 0-87 40-87 99 0 60 29 101 89 101 43 0 62-24 78-52l27 14C228-24 195 4 139 4 59 4 22-46 18-125c-6-104 99-153 187-111 19 9 31 26 39 46" id="bm"/><g id="s"><use transform="matrix(0.07407407407407408,0,0,0.07407407407407408,0,0)" xlink:href="#bl"/><use transform="matrix(0.07407407407407408,0,0,0.07407407407407408,13.333333333333336,0)" xlink:href="#an"/><use transform="matrix(0.07407407407407408,0,0,0.07407407407407408,28.148148148148152,0)" xlink:href="#aR"/><use transform="matrix(0.07407407407407408,0,0,0.07407407407407408,50.296296296296305,0)" xlink:href="#aR"/><use transform="matrix(0.07407407407407408,0,0,0.07407407407407408,72.44444444444446,0)" xlink:href="#ar"/><use transform="matrix(0.07407407407407408,0,0,0.07407407407407408,87.25925925925927,0)" xlink:href="#aO"/><use transform="matrix(0.07407407407407408,0,0,0.07407407407407408,102.07407407407408,0)" xlink:href="#aL"/><use transform="matrix(0.07407407407407408,0,0,0.07407407407407408,109.48148148148148,0)" xlink:href="#bm"/><use transform="matrix(0.07407407407407408,0,0,0.07407407407407408,128.66666666666666,0)" xlink:href="#an"/><use transform="matrix(0.07407407407407408,0,0,0.07407407407407408,143.48148148148147,0)" xlink:href="#aO"/><use transform="matrix(0.07407407407407408,0,0,0.07407407407407408,158.29629629629628,0)" xlink:href="#aL"/><use transform="matrix(0.07407407407407408,0,0,0.07407407407407408,165.7037037037037,0)" xlink:href="#ar"/><use transform="matrix(0.07407407407407408,0,0,0.07407407407407408,180.5185185185185,0)" xlink:href="#aO"/><use transform="matrix(0.07407407407407408,0,0,0.07407407407407408,195.33333333333331,0)" xlink:href="#aL"/></g><filter id="r" filterUnits="objectBoundingBox" x="-.04" y="-.07" width="1.08" height="1.33"><feOffset result="offOut" in="SourceAlpha" dy="6"/><feGaussianBlur result="blurOut" in="offOut" stdDeviation="5"/><feColorMatrix result="colorOut" in="blurOut" values="0 0 0 0 0 0 0 0 0 0 0 0 0 0 0 0 0 0 0.16862745098039217 0"/><feBlend in="SourceGraphic" in2="colorOut"/></filter><path fill="#3d4752" d="M30-248c118-7 216 8 213 122C240-48 200 0 122 0H30v-248zM63-27c89 8 146-16 146-99s-60-101-146-95v194" id="bn"/><g id="t"><use transform="matrix(0.07407407407407408,0,0,0.07407407407407408,0,0)" xlink:href="#bl"/><use transform="matrix(0.07407407407407408,0,0,0.07407407407407408,13.333333333333336,0)" xlink:href="#an"/><use transform="matrix(0.07407407407407408,0,0,0.07407407407407408,28.148148148148152,0)" xlink:href="#aR"/><use transform="matrix(0.07407407407407408,0,0,0.07407407407407408,50.296296296296305,0)" xlink:href="#aR"/><use transform="matrix(0.07407407407407408,0,0,0.07407407407407408,72.44444444444446,0)" xlink:href="#ar"/><use transform="matrix(0.07407407407407408,0,0,0.07407407407407408,87.25925925925927,0)" xlink:href="#aO"/><use transform="matrix(0.07407407407407408,0,0,0.07407407407407408,102.07407407407408,0)" xlink:href="#aL"/><use transform="matrix(0.07407407407407408,0,0,0.07407407407407408,109.48148148148148,0)" xlink:href="#bn"/><use transform="matrix(0.07407407407407408,0,0,0.07407407407407408,128.66666666666666,0)" xlink:href="#aN"/><use transform="matrix(0.07407407407407408,0,0,0.07407407407407408,143.48148148148147,0)" xlink:href="#aL"/><use transform="matrix(0.07407407407407408,0,0,0.07407407407407408,150.88888888888889,0)" xlink:href="#ar"/></g><path fill="#3d4752" d="M108 0H70L1-190h34L89-25l56-165h34" id="bo"/><g id="u"><use transform="matrix(0.07407407407407408,0,0,0.07407407407407408,0,0)" xlink:href="#aQ"/><use transform="matrix(0.07407407407407408,0,0,0.07407407407407408,17.77777777777778,0)" xlink:href="#bo"/><use transform="matrix(0.07407407407407408,0,0,0.07407407407407408,31.111111111111114,0)" xlink:href="#ar"/><use transform="matrix(0.07407407407407408,0,0,0.07407407407407408,45.92592592592593,0)" xlink:href="#aO"/><use transform="matrix(0.07407407407407408,0,0,0.07407407407407408,60.74074074074075,0)" xlink:href="#aL"/></g><g id="w"><use transform="matrix(0.07407407407407408,0,0,0.07407407407407408,0,0)" xlink:href="#ay"/><use transform="matrix(0.07407407407407408,0,0,0.07407407407407408,14.814814814814817,0)" xlink:href="#aE"/><use transform="matrix(0.07407407407407408,0,0,0.07407407407407408,29.629629629629633,0)" xlink:href="#ay"/><use transform="matrix(0.07407407407407408,0,0,0.07407407407407408,44.44444444444445,0)" xlink:href="#aG"/><use transform="matrix(0.07407407407407408,0,0,0.07407407407407408,60.66666666666667,0)" xlink:href="#aD"/><use transform="matrix(0.07407407407407408,0,0,0.07407407407407408,69.4814814814815,0)" xlink:href="#az"/><use transform="matrix(0.07407407407407408,0,0,0.07407407407407408,76.8888888888889,0)" xlink:href="#aA"/><path fill="#3d4752" d="M-1.33 1.43h95.78v2.8H-1.33z"/></g><filter id="v" filterUnits="objectBoundingBox" x="-.08" y="-.07" width="1.17" height="1.33"><feOffset result="offOut" in="SourceAlpha" dy="6"/><feGaussianBlur result="blurOut" in="offOut" stdDeviation="5"/><feColorMatrix result="colorOut" in="blurOut" values="0 0 0 0 0 0 0 0 0 0 0 0 0 0 0 0 0 0 0.16862745098039217 0"/><feBlend in="SourceGraphic" in2="colorOut"/></filter><g id="x"><use transform="matrix(0.07407407407407408,0,0,0.07407407407407408,0,0)" xlink:href="#aZ"/><use transform="matrix(0.07407407407407408,0,0,0.07407407407407408,14.814814814814817,0)" xlink:href="#bd"/><use transform="matrix(0.07407407407407408,0,0,0.07407407407407408,28.148148148148152,0)" xlink:href="#aZ"/><use transform="matrix(0.07407407407407408,0,0,0.07407407407407408,42.96296296296297,0)" xlink:href="#ba"/><use transform="matrix(0.07407407407407408,0,0,0.07407407407407408,57.777777777777786,0)" xlink:href="#bb"/><use transform="matrix(0.07407407407407408,0,0,0.07407407407407408,65.18518518518519,0)" xlink:href="#bg"/><use transform="matrix(0.07407407407407408,0,0,0.07407407407407408,82.96296296296296,0)" xlink:href="#bh"/><use transform="matrix(0.07407407407407408,0,0,0.07407407407407408,91.77777777777777,0)" xlink:href="#aX"/><use transform="matrix(0.07407407407407408,0,0,0.07407407407407408,106.59259259259257,0)" xlink:href="#bi"/><use transform="matrix(0.07407407407407408,0,0,0.07407407407407408,113.99999999999999,0)" xlink:href="#bj"/><use transform="matrix(0.07407407407407408,0,0,0.07407407407407408,119.85185185185183,0)" xlink:href="#bk"/><use transform="matrix(0.07407407407407408,0,0,0.07407407407407408,125.70370370370368,0)" xlink:href="#aZ"/><use transform="matrix(0.07407407407407408,0,0,0.07407407407407408,140.5185185185185,0)" xlink:href="#be"/><use transform="matrix(0.07407407407407408,0,0,0.07407407407407408,147.92592592592592,0)" xlink:href="#bf"/><path fill="#3d4752" d="M-1.33 1.85h165.4V3.8H-1.32z"/></g><path fill="#3d4752" d="M127-220V0H93v-220H8v-28h204v28h-85" id="bp"/><g id="y"><use transform="matrix(0.07407407407407408,0,0,0.07407407407407408,0,0)" xlink:href="#ar"/><use transform="matrix(0.07407407407407408,0,0,0.07407407407407408,14.814814814814817,0)" xlink:href="#bo"/><use transform="matrix(0.07407407407407408,0,0,0.07407407407407408,28.148148148148152,0)" xlink:href="#ar"/><use transform="matrix(0.07407407407407408,0,0,0.07407407407407408,42.96296296296297,0)" xlink:href="#aO"/><use transform="matrix(0.07407407407407408,0,0,0.07407407407407408,57.777777777777786,0)" xlink:href="#aL"/><use transform="matrix(0.07407407407407408,0,0,0.07407407407407408,65.18518518518519,0)" xlink:href="#bn"/><use transform="matrix(0.07407407407407408,0,0,0.07407407407407408,84.37037037037038,0)" xlink:href="#aN"/><use transform="matrix(0.07407407407407408,0,0,0.07407407407407408,99.1851851851852,0)" xlink:href="#aL"/><use transform="matrix(0.07407407407407408,0,0,0.07407407407407408,106.5925925925926,0)" xlink:href="#ar"/><use transform="matrix(0.07407407407407408,0,0,0.07407407407407408,121.40740740740742,0)" xlink:href="#bp"/><use transform="matrix(0.07407407407407408,0,0,0.07407407407407408,136.66666666666669,0)" xlink:href="#ap"/><use transform="matrix(0.07407407407407408,0,0,0.07407407407407408,142.51851851851853,0)" xlink:href="#aR"/><use transform="matrix(0.07407407407407408,0,0,0.07407407407407408,164.66666666666669,0)" xlink:href="#ar"/></g><g id="z"><use transform="matrix(0.07407407407407408,0,0,0.07407407407407408,0,0)" xlink:href="#ar"/><use transform="matrix(0.07407407407407408,0,0,0.07407407407407408,14.814814814814817,0)" xlink:href="#bo"/><use transform="matrix(0.07407407407407408,0,0,0.07407407407407408,28.148148148148152,0)" xlink:href="#ar"/><use transform="matrix(0.07407407407407408,0,0,0.07407407407407408,42.96296296296297,0)" xlink:href="#aO"/><use transform="matrix(0.07407407407407408,0,0,0.07407407407407408,57.777777777777786,0)" xlink:href="#aL"/><use transform="matrix(0.07407407407407408,0,0,0.07407407407407408,65.18518518518519,0)" xlink:href="#bn"/><use transform="matrix(0.07407407407407408,0,0,0.07407407407407408,84.37037037037038,0)" xlink:href="#ar"/><use transform="matrix(0.07407407407407408,0,0,0.07407407407407408,99.1851851851852,0)" xlink:href="#aL"/><use transform="matrix(0.07407407407407408,0,0,0.07407407407407408,106.5925925925926,0)" xlink:href="#aN"/><use transform="matrix(0.07407407407407408,0,0,0.07407407407407408,121.40740740740742,0)" xlink:href="#ap"/><use transform="matrix(0.07407407407407408,0,0,0.07407407407407408,127.25925925925925,0)" xlink:href="#aq"/><use transform="matrix(0.07407407407407408,0,0,0.07407407407407408,133.11111111111111,0)" xlink:href="#aS"/></g><path fill="#3d4752" d="M30 0v-248h33v221h125V0H30" id="bq"/><g id="A"><use transform="matrix(0.07407407407407408,0,0,0.07407407407407408,0,0)" xlink:href="#ar"/><use transform="matrix(0.07407407407407408,0,0,0.07407407407407408,14.814814814814817,0)" xlink:href="#bo"/><use transform="matrix(0.07407407407407408,0,0,0.07407407407407408,28.148148148148152,0)" xlink:href="#ar"/><use transform="matrix(0.07407407407407408,0,0,0.07407407407407408,42.96296296296297,0)" xlink:href="#aO"/><use transform="matrix(0.07407407407407408,0,0,0.07407407407407408,57.777777777777786,0)" xlink:href="#aL"/><use transform="matrix(0.07407407407407408,0,0,0.07407407407407408,65.18518518518519,0)" xlink:href="#bq"/><use transform="matrix(0.07407407407407408,0,0,0.07407407407407408,80,0)" xlink:href="#an"/><use transform="matrix(0.07407407407407408,0,0,0.07407407407407408,94.81481481481481,0)" xlink:href="#bl"/><use transform="matrix(0.07407407407407408,0,0,0.07407407407407408,108.14814814814815,0)" xlink:href="#aN"/><use transform="matrix(0.07407407407407408,0,0,0.07407407407407408,122.96296296296296,0)" xlink:href="#aL"/><use transform="matrix(0.07407407407407408,0,0,0.07407407407407408,130.37037037037038,0)" xlink:href="#ap"/><use transform="matrix(0.07407407407407408,0,0,0.07407407407407408,136.22222222222223,0)" xlink:href="#an"/><use transform="matrix(0.07407407407407408,0,0,0.07407407407407408,151.03703703703704,0)" xlink:href="#aO"/></g><g id="C"><use transform="matrix(0.07407407407407408,0,0,0.07407407407407408,0,0)" xlink:href="#ar"/><use transform="matrix(0.07407407407407408,0,0,0.07407407407407408,14.814814814814817,0)" xlink:href="#bo"/><use transform="matrix(0.07407407407407408,0,0,0.07407407407407408,28.148148148148152,0)" xlink:href="#ar"/><use transform="matrix(0.07407407407407408,0,0,0.07407407407407408,42.96296296296297,0)" xlink:href="#aO"/><use transform="matrix(0.07407407407407408,0,0,0.07407407407407408,57.777777777777786,0)" xlink:href="#aL"/><use transform="matrix(0.07407407407407408,0,0,0.07407407407407408,65.18518518518519,0)" xlink:href="#aU"/><use transform="matrix(0.07407407407407408,0,0,0.07407407407407408,84.37037037037038,0)" xlink:href="#ar"/><use transform="matrix(0.07407407407407408,0,0,0.07407407407407408,99.1851851851852,0)" xlink:href="#aJ"/></g><filter id="B" filterUnits="objectBoundingBox" x="-.07" y="-.07" width="1.14" height="1.33"><feOffset result="offOut" in="SourceAlpha" dy="6"/><feGaussianBlur result="blurOut" in="offOut" stdDeviation="5"/><feColorMatrix result="colorOut" in="blurOut" values="0 0 0 0 0 0 0 0 0 0 0 0 0 0 0 0 0 0 0.16862745098039217 0"/><feBlend in="SourceGraphic" in2="colorOut"/></filter><path fill="#3d4752" d="M179-190L93 31C79 59 56 82 12 73V49c39 6 53-20 64-50L1-190h34L92-34l54-156h33" id="br"/><g id="D"><use transform="matrix(0.07407407407407408,0,0,0.07407407407407408,0,0)" xlink:href="#ar"/><use transform="matrix(0.07407407407407408,0,0,0.07407407407407408,14.814814814814817,0)" xlink:href="#bo"/><use transform="matrix(0.07407407407407408,0,0,0.07407407407407408,28.148148148148152,0)" xlink:href="#ar"/><use transform="matrix(0.07407407407407408,0,0,0.07407407407407408,42.96296296296297,0)" xlink:href="#aO"/><use transform="matrix(0.07407407407407408,0,0,0.07407407407407408,57.777777777777786,0)" xlink:href="#aL"/><use transform="matrix(0.07407407407407408,0,0,0.07407407407407408,65.18518518518519,0)" xlink:href="#bp"/><use transform="matrix(0.07407407407407408,0,0,0.07407407407407408,79.92592592592594,0)" xlink:href="#br"/><use transform="matrix(0.07407407407407408,0,0,0.07407407407407408,93.25925925925927,0)" xlink:href="#aJ"/><use transform="matrix(0.07407407407407408,0,0,0.07407407407407408,108.07407407407408,0)" xlink:href="#ar"/></g><path fill="#3d4752" d="M67-158c15-20 31-36 64-36 94 0 33 127 27 194h-32l25-140c3-38-53-32-70-12C52-117 51-51 37 0H6l51-261h31" id="bs"/><path fill="#3d4752" d="M127 0L80-88 50-66 37 0H6l51-261h31L57-100l99-90h39l-93 82L161 0h-34" id="bt"/><g id="E"><use transform="matrix(0.07407407407407408,0,0,0.07407407407407408,0,0)" xlink:href="#aW"/><use transform="matrix(0.07407407407407408,0,0,0.07407407407407408,13.333333333333336,0)" xlink:href="#bs"/><use transform="matrix(0.07407407407407408,0,0,0.07407407407407408,28.148148148148152,0)" xlink:href="#aZ"/><use transform="matrix(0.07407407407407408,0,0,0.07407407407407408,42.96296296296297,0)" xlink:href="#aW"/><use transform="matrix(0.07407407407407408,0,0,0.07407407407407408,56.296296296296305,0)" xlink:href="#bt"/><use transform="matrix(0.07407407407407408,0,0,0.07407407407407408,69.62962962962965,0)" xlink:href="#be"/><use transform="matrix(0.07407407407407408,0,0,0.07407407407407408,77.03703703703705,0)" xlink:href="#ba"/><use transform="matrix(0.07407407407407408,0,0,0.07407407407407408,91.85185185185188,0)" xlink:href="#bc"/><use transform="matrix(0.07407407407407408,0,0,0.07407407407407408,109.62962962962965,0)" xlink:href="#bd"/><use transform="matrix(0.07407407407407408,0,0,0.07407407407407408,122.96296296296299,0)" xlink:href="#aZ"/><use transform="matrix(0.07407407407407408,0,0,0.07407407407407408,137.7777777777778,0)" xlink:href="#ba"/><use transform="matrix(0.07407407407407408,0,0,0.07407407407407408,152.5925925925926,0)" xlink:href="#bb"/><use transform="matrix(0.07407407407407408,0,0,0.07407407407407408,160.00000000000003,0)" xlink:href="#be"/><use transform="matrix(0.07407407407407408,0,0,0.07407407407407408,167.40740740740748,0)" xlink:href="#bf"/><path fill="#3d4752" d="M-1.33 1.85h184.9V3.8H-1.34z"/></g><g id="G"><use transform="matrix(0.07407407407407408,0,0,0.07407407407407408,0,0)" xlink:href="#aW"/><use transform="matrix(0.07407407407407408,0,0,0.07407407407407408,13.333333333333336,0)" xlink:href="#bs"/><use transform="matrix(0.07407407407407408,0,0,0.07407407407407408,28.148148148148152,0)" xlink:href="#aZ"/><use transform="matrix(0.07407407407407408,0,0,0.07407407407407408,42.96296296296297,0)" xlink:href="#aW"/><use transform="matrix(0.07407407407407408,0,0,0.07407407407407408,56.296296296296305,0)" xlink:href="#bt"/><use transform="matrix(0.07407407407407408,0,0,0.07407407407407408,69.62962962962965,0)" xlink:href="#be"/><use transform="matrix(0.07407407407407408,0,0,0.07407407407407408,77.03703703703705,0)" xlink:href="#ba"/><use transform="matrix(0.07407407407407408,0,0,0.07407407407407408,91.85185185185188,0)" xlink:href="#bg"/><use transform="matrix(0.07407407407407408,0,0,0.07407407407407408,109.62962962962965,0)" xlink:href="#bh"/><use transform="matrix(0.07407407407407408,0,0,0.07407407407407408,118.44444444444446,0)" xlink:href="#aX"/><use transform="matrix(0.07407407407407408,0,0,0.07407407407407408,133.25925925925927,0)" xlink:href="#bi"/><use transform="matrix(0.07407407407407408,0,0,0.07407407407407408,140.66666666666669,0)" xlink:href="#bj"/><use transform="matrix(0.07407407407407408,0,0,0.07407407407407408,146.51851851851853,0)" xlink:href="#bk"/><use transform="matrix(0.07407407407407408,0,0,0.07407407407407408,152.37037037037038,0)" xlink:href="#aZ"/><use transform="matrix(0.07407407407407408,0,0,0.07407407407407408,167.18518518518522,0)" xlink:href="#be"/><use transform="matrix(0.07407407407407408,0,0,0.07407407407407408,174.5925925925926,0)" xlink:href="#bf"/><path fill="#3d4752" d="M-1.33 1.85h192.07V3.8H-1.33z"/></g><filter id="F" filterUnits="objectBoundingBox" x="-.05" y="-.06" width="1.1" height="1.28"><feOffset result="offOut" in="SourceAlpha" dy="6"/><feGaussianBlur result="blurOut" in="offOut" stdDeviation="5"/><feColorMatrix result="colorOut" in="blurOut" values="0 0 0 0 0 0 0 0 0 0 0 0 0 0 0 0 0 0 0.16862745098039217 0"/><feBlend in="SourceGraphic" in2="colorOut"/></filter><path fill="#3d4752" d="M143 0L79-87 56-68V0H24v-261h32v163l83-92h37l-77 82L181 0h-38" id="bu"/><path fill="#3d4752" d="M33 0v-248h34V0H33" id="bv"/><g id="I"><use transform="matrix(0.07407407407407408,0,0,0.07407407407407408,0,0)" xlink:href="#bl"/><use transform="matrix(0.07407407407407408,0,0,0.07407407407407408,13.333333333333336,0)" xlink:href="#aT"/><use transform="matrix(0.07407407407407408,0,0,0.07407407407407408,28.148148148148152,0)" xlink:href="#ar"/><use transform="matrix(0.07407407407407408,0,0,0.07407407407407408,42.96296296296297,0)" xlink:href="#bl"/><use transform="matrix(0.07407407407407408,0,0,0.07407407407407408,56.296296296296305,0)" xlink:href="#bu"/><use transform="matrix(0.07407407407407408,0,0,0.07407407407407408,69.62962962962965,0)" xlink:href="#bv"/><use transform="matrix(0.07407407407407408,0,0,0.07407407407407408,77.03703703703705,0)" xlink:href="#aO"/><use transform="matrix(0.07407407407407408,0,0,0.07407407407407408,91.85185185185188,0)" xlink:href="#bn"/><use transform="matrix(0.07407407407407408,0,0,0.07407407407407408,111.03703703703707,0)" xlink:href="#aN"/><use transform="matrix(0.07407407407407408,0,0,0.07407407407407408,125.85185185185186,0)" xlink:href="#aL"/><use transform="matrix(0.07407407407407408,0,0,0.07407407407407408,133.2592592592593,0)" xlink:href="#ar"/><use transform="matrix(0.07407407407407408,0,0,0.07407407407407408,148.0740740740741,0)" xlink:href="#bp"/><use transform="matrix(0.07407407407407408,0,0,0.07407407407407408,163.33333333333334,0)" xlink:href="#ap"/><use transform="matrix(0.07407407407407408,0,0,0.07407407407407408,169.18518518518522,0)" xlink:href="#aR"/><use transform="matrix(0.07407407407407408,0,0,0.07407407407407408,191.33333333333337,0)" xlink:href="#ar"/></g><filter id="H" filterUnits="objectBoundingBox" x="-.05" y="-.06" width="1.09" height="1.28"><feOffset result="offOut" in="SourceAlpha" dy="6"/><feGaussianBlur result="blurOut" in="offOut" stdDeviation="5"/><feColorMatrix result="colorOut" in="blurOut" values="0 0 0 0 0 0 0 0 0 0 0 0 0 0 0 0 0 0 0.16862745098039217 0"/><feBlend in="SourceGraphic" in2="colorOut"/></filter><g id="J"><use transform="matrix(0.07407407407407408,0,0,0.07407407407407408,0,0)" xlink:href="#bl"/><use transform="matrix(0.07407407407407408,0,0,0.07407407407407408,13.333333333333336,0)" xlink:href="#aT"/><use transform="matrix(0.07407407407407408,0,0,0.07407407407407408,28.148148148148152,0)" xlink:href="#ar"/><use transform="matrix(0.07407407407407408,0,0,0.07407407407407408,42.96296296296297,0)" xlink:href="#bl"/><use transform="matrix(0.07407407407407408,0,0,0.07407407407407408,56.296296296296305,0)" xlink:href="#bu"/><use transform="matrix(0.07407407407407408,0,0,0.07407407407407408,69.62962962962965,0)" xlink:href="#bv"/><use transform="matrix(0.07407407407407408,0,0,0.07407407407407408,77.03703703703705,0)" xlink:href="#aO"/><use transform="matrix(0.07407407407407408,0,0,0.07407407407407408,91.85185185185188,0)" xlink:href="#aU"/><use transform="matrix(0.07407407407407408,0,0,0.07407407407407408,111.03703703703707,0)" xlink:href="#ar"/><use transform="matrix(0.07407407407407408,0,0,0.07407407407407408,125.85185185185186,0)" xlink:href="#aJ"/></g><path fill="#3d4752" d="M177-190C167-65 218 103 67 71c-23-6-38-20-44-43l32-5c15 47 100 32 89-28v-30C133-14 115 1 83 1 29 1 15-40 15-95c0-56 16-97 71-98 29-1 48 16 59 35 1-10 0-23 2-32h30zM94-22c36 0 50-32 50-73 0-42-14-75-50-75-39 0-46 34-46 75s6 73 46 73" id="bw"/><g id="L"><use transform="matrix(0.07407407407407408,0,0,0.07407407407407408,0,0)" xlink:href="#bm"/><use transform="matrix(0.07407407407407408,0,0,0.07407407407407408,19.185185185185187,0)" xlink:href="#aN"/><use transform="matrix(0.07407407407407408,0,0,0.07407407407407408,34,0)" xlink:href="#aL"/><use transform="matrix(0.07407407407407408,0,0,0.07407407407407408,41.407407407407405,0)" xlink:href="#ar"/><use transform="matrix(0.07407407407407408,0,0,0.07407407407407408,56.22222222222222,0)" xlink:href="#bw"/><use transform="matrix(0.07407407407407408,0,0,0.07407407407407408,71.03703703703704,0)" xlink:href="#an"/><use transform="matrix(0.07407407407407408,0,0,0.07407407407407408,85.85185185185185,0)" xlink:href="#am"/><use transform="matrix(0.07407407407407408,0,0,0.07407407407407408,94.66666666666666,0)" xlink:href="#br"/></g><filter id="K" filterUnits="objectBoundingBox" x="-.06" y="-.05" width="1.13" height="1.25"><feOffset result="offOut" in="SourceAlpha" dy="6"/><feGaussianBlur result="blurOut" in="offOut" stdDeviation="5"/><feColorMatrix result="colorOut" in="blurOut" values="0 0 0 0 0 0 0 0 0 0 0 0 0 0 0 0 0 0 0.16862745098039217 0"/><feBlend in="SourceGraphic" in2="colorOut"/></filter><g id="M"><use transform="matrix(0.07407407407407408,0,0,0.07407407407407408,0,0)" xlink:href="#bl"/><use transform="matrix(0.07407407407407408,0,0,0.07407407407407408,13.333333333333336,0)" xlink:href="#aN"/><use transform="matrix(0.07407407407407408,0,0,0.07407407407407408,28.148148148148152,0)" xlink:href="#aL"/><use transform="matrix(0.07407407407407408,0,0,0.07407407407407408,35.55555555555556,0)" xlink:href="#ar"/><use transform="matrix(0.07407407407407408,0,0,0.07407407407407408,50.370370370370374,0)" xlink:href="#bw"/><use transform="matrix(0.07407407407407408,0,0,0.07407407407407408,65.18518518518519,0)" xlink:href="#an"/><use transform="matrix(0.07407407407407408,0,0,0.07407407407407408,80,0)" xlink:href="#am"/><use transform="matrix(0.07407407407407408,0,0,0.07407407407407408,88.81481481481481,0)" xlink:href="#br"/><use transform="matrix(0.07407407407407408,0,0,0.07407407407407408,102.14814814814814,0)" xlink:href="#bv"/><use transform="matrix(0.07407407407407408,0,0,0.07407407407407408,109.55555555555556,0)" xlink:href="#aP"/><path fill="#3d4752" d="M-1.33 1.85H125.7V3.8H-1.32z"/></g><path fill="#3d4752" d="M190 0L58-211 59 0H30v-248h39L202-35l-2-213h31V0h-41" id="bx"/><g id="O"><use transform="matrix(0.07407407407407408,0,0,0.07407407407407408,0,0)" xlink:href="#bl"/><use transform="matrix(0.07407407407407408,0,0,0.07407407407407408,13.333333333333336,0)" xlink:href="#aN"/><use transform="matrix(0.07407407407407408,0,0,0.07407407407407408,28.148148148148152,0)" xlink:href="#aL"/><use transform="matrix(0.07407407407407408,0,0,0.07407407407407408,35.55555555555556,0)" xlink:href="#ar"/><use transform="matrix(0.07407407407407408,0,0,0.07407407407407408,50.370370370370374,0)" xlink:href="#bw"/><use transform="matrix(0.07407407407407408,0,0,0.07407407407407408,65.18518518518519,0)" xlink:href="#an"/><use transform="matrix(0.07407407407407408,0,0,0.07407407407407408,80,0)" xlink:href="#am"/><use transform="matrix(0.07407407407407408,0,0,0.07407407407407408,88.81481481481481,0)" xlink:href="#br"/><use transform="matrix(0.07407407407407408,0,0,0.07407407407407408,102.14814814814814,0)" xlink:href="#bx"/><use transform="matrix(0.07407407407407408,0,0,0.07407407407407408,121.33333333333334,0)" xlink:href="#aN"/><use transform="matrix(0.07407407407407408,0,0,0.07407407407407408,136.14814814814815,0)" xlink:href="#aR"/><use transform="matrix(0.07407407407407408,0,0,0.07407407407407408,158.2962962962963,0)" xlink:href="#ar"/></g><filter id="N" filterUnits="objectBoundingBox" x="-.05" y="-.05" width="1.1" height="1.25"><feOffset result="offOut" in="SourceAlpha" dy="6"/><feGaussianBlur result="blurOut" in="offOut" stdDeviation="5"/><feColorMatrix result="colorOut" in="blurOut" values="0 0 0 0 0 0 0 0 0 0 0 0 0 0 0 0 0 0 0.16862745098039217 0"/><feBlend in="SourceGraphic" in2="colorOut"/></filter><g id="Q"><use transform="matrix(0.07407407407407408,0,0,0.07407407407407408,0,0)" xlink:href="#bl"/><use transform="matrix(0.07407407407407408,0,0,0.07407407407407408,13.333333333333336,0)" xlink:href="#aN"/><use transform="matrix(0.07407407407407408,0,0,0.07407407407407408,28.148148148148152,0)" xlink:href="#aL"/><use transform="matrix(0.07407407407407408,0,0,0.07407407407407408,35.55555555555556,0)" xlink:href="#ar"/><use transform="matrix(0.07407407407407408,0,0,0.07407407407407408,50.370370370370374,0)" xlink:href="#bw"/><use transform="matrix(0.07407407407407408,0,0,0.07407407407407408,65.18518518518519,0)" xlink:href="#an"/><use transform="matrix(0.07407407407407408,0,0,0.07407407407407408,80,0)" xlink:href="#am"/><use transform="matrix(0.07407407407407408,0,0,0.07407407407407408,88.81481481481481,0)" xlink:href="#br"/><use transform="matrix(0.07407407407407408,0,0,0.07407407407407408,102.14814814814814,0)" xlink:href="#bp"/><use transform="matrix(0.07407407407407408,0,0,0.07407407407407408,116.8888888888889,0)" xlink:href="#br"/><use transform="matrix(0.07407407407407408,0,0,0.07407407407407408,130.22222222222223,0)" xlink:href="#aJ"/><use transform="matrix(0.07407407407407408,0,0,0.07407407407407408,145.03703703703704,0)" xlink:href="#ar"/></g><filter id="P" filterUnits="objectBoundingBox" x="-.06" y="-.05" width="1.11" height="1.25"><feOffset result="offOut" in="SourceAlpha" dy="6"/><feGaussianBlur result="blurOut" in="offOut" stdDeviation="5"/><feColorMatrix result="colorOut" in="blurOut" values="0 0 0 0 0 0 0 0 0 0 0 0 0 0 0 0 0 0 0.16862745098039217 0"/><feBlend in="SourceGraphic" in2="colorOut"/></filter><g id="R"><use transform="matrix(0.07407407407407408,0,0,0.07407407407407408,0,0)" xlink:href="#bl"/><use transform="matrix(0.07407407407407408,0,0,0.07407407407407408,13.333333333333336,0)" xlink:href="#aN"/><use transform="matrix(0.07407407407407408,0,0,0.07407407407407408,28.148148148148152,0)" xlink:href="#aO"/></g><g id="S"><use transform="matrix(0.07407407407407408,0,0,0.07407407407407408,0,0)" xlink:href="#aT"/><use transform="matrix(0.07407407407407408,0,0,0.07407407407407408,14.814814814814817,0)" xlink:href="#aN"/><use transform="matrix(0.07407407407407408,0,0,0.07407407407407408,29.629629629629633,0)" xlink:href="#bo"/><use transform="matrix(0.07407407407407408,0,0,0.07407407407407408,42.96296296296297,0)" xlink:href="#ar"/></g><g id="U"><use transform="matrix(0.07407407407407408,0,0,0.07407407407407408,0,0)" xlink:href="#aN"/><use transform="matrix(0.07407407407407408,0,0,0.07407407407407408,14.814814814814817,0)" xlink:href="#aL"/><use transform="matrix(0.07407407407407408,0,0,0.07407407407407408,22.222222222222225,0)" xlink:href="#aL"/><use transform="matrix(0.07407407407407408,0,0,0.07407407407407408,29.629629629629633,0)" xlink:href="#ar"/><use transform="matrix(0.07407407407407408,0,0,0.07407407407407408,44.44444444444445,0)" xlink:href="#aO"/><use transform="matrix(0.07407407407407408,0,0,0.07407407407407408,59.25925925925927,0)" xlink:href="#aP"/></g><filter id="T" filterUnits="objectBoundingBox" x="-.06" y="-.05" width="1.13" height="1.24"><feOffset result="offOut" in="SourceAlpha" dy="6"/><feGaussianBlur result="blurOut" in="offOut" stdDeviation="5"/><feColorMatrix result="colorOut" in="blurOut" values="0 0 0 0 0 0 0 0 0 0 0 0 0 0 0 0 0 0 0.16862745098039217 0"/><feBlend in="SourceGraphic" in2="colorOut"/></filter><use transform="matrix(0.14814814814814817,0,0,0.14814814814814817,0,0)" xlink:href="#aR" id="V"/><use transform="matrix(0.14814814814814817,0,0,0.14814814814814817,0,0)" xlink:href="#aO" id="W"/><g id="Y"><use transform="matrix(0.07407407407407408,0,0,0.07407407407407408,0,0)" xlink:href="#bl"/><use transform="matrix(0.07407407407407408,0,0,0.07407407407407408,13.333333333333336,0)" xlink:href="#aN"/><use transform="matrix(0.07407407407407408,0,0,0.07407407407407408,28.148148148148152,0)" xlink:href="#aO"/></g><g id="Z"><use transform="matrix(0.07407407407407408,0,0,0.07407407407407408,0,0)" xlink:href="#aT"/><use transform="matrix(0.07407407407407408,0,0,0.07407407407407408,14.814814814814817,0)" xlink:href="#aN"/><use transform="matrix(0.07407407407407408,0,0,0.07407407407407408,29.629629629629633,0)" xlink:href="#bo"/><use transform="matrix(0.07407407407407408,0,0,0.07407407407407408,42.96296296296297,0)" xlink:href="#ar"/></g><filter id="X" filterUnits="objectBoundingBox" x="-.06" y="-.05" width="1.13" height="1.24"><feOffset result="offOut" in="SourceAlpha" dy="6"/><feGaussianBlur result="blurOut" in="offOut" stdDeviation="5"/><feColorMatrix result="colorOut" in="blurOut" values="0 0 0 0 0 0 0 0 0 0 0 0 0 0 0 0 0 0 0.16862745098039217 0"/><feBlend in="SourceGraphic" in2="colorOut"/></filter><path fill="#3d4752" d="M27 0v-27h64v-190l-56 39v-29l58-41h29v221h61V0H27" id="by"/><use transform="matrix(0.14814814814814817,0,0,0.14814814814814817,0,0)" xlink:href="#by" id="aa"/><g id="ac"><use transform="matrix(0.07407407407407408,0,0,0.07407407407407408,0,0)" xlink:href="#bl"/><use transform="matrix(0.07407407407407408,0,0,0.07407407407407408,13.333333333333336,0)" xlink:href="#an"/><use transform="matrix(0.07407407407407408,0,0,0.07407407407407408,28.148148148148152,0)" xlink:href="#aR"/><use transform="matrix(0.07407407407407408,0,0,0.07407407407407408,50.296296296296305,0)" xlink:href="#aR"/><use transform="matrix(0.07407407407407408,0,0,0.07407407407407408,72.44444444444446,0)" xlink:href="#ar"/><use transform="matrix(0.07407407407407408,0,0,0.07407407407407408,87.25925925925927,0)" xlink:href="#aO"/><use transform="matrix(0.07407407407407408,0,0,0.07407407407407408,102.07407407407408,0)" xlink:href="#aL"/></g><filter id="ab" filterUnits="objectBoundingBox" x="-.04" y="-.04" width="1.07" height="1.22"><feOffset result="offOut" in="SourceAlpha" dy="6"/><feGaussianBlur result="blurOut" in="offOut" stdDeviation="5"/><feColorMatrix result="colorOut" in="blurOut" values="0 0 0 0 0 0 0 0 0 0 0 0 0 0 0 0 0 0 0.16862745098039217 0"/><feBlend in="SourceGraphic" in2="colorOut"/></filter><path fill="#3d4752" d="M115-194c53 0 69 39 70 98 0 66-23 100-70 100C84 3 66-7 56-30L54 0H23l1-261h32v101c10-23 28-34 59-34zm-8 174c40 0 45-34 45-75 0-40-5-75-45-74-42 0-51 32-51 76 0 43 10 73 51 73" id="bz"/><g id="ae"><use transform="matrix(0.07407407407407408,0,0,0.07407407407407408,0,0)" xlink:href="#bz"/><use transform="matrix(0.07407407407407408,0,0,0.07407407407407408,14.814814814814817,0)" xlink:href="#ar"/></g><g id="af"><use transform="matrix(0.07407407407407408,0,0,0.07407407407407408,0,0)" xlink:href="#aJ"/><use transform="matrix(0.07407407407407408,0,0,0.07407407407407408,14.814814814814817,0)" xlink:href="#an"/><use transform="matrix(0.07407407407407408,0,0,0.07407407407407408,29.629629629629633,0)" xlink:href="#aS"/><use transform="matrix(0.07407407407407408,0,0,0.07407407407407408,42.96296296296297,0)" xlink:href="#aL"/><use transform="matrix(0.07407407407407408,0,0,0.07407407407407408,50.370370370370374,0)" xlink:href="#ar"/><use transform="matrix(0.07407407407407408,0,0,0.07407407407407408,65.18518518518519,0)" xlink:href="#aP"/></g><g id="ag"><use transform="matrix(0.07407407407407408,0,0,0.07407407407407408,0,0)" xlink:href="#aL"/><use transform="matrix(0.07407407407407408,0,0,0.07407407407407408,7.407407407407408,0)" xlink:href="#an"/></g><filter id="ad" filterUnits="objectBoundingBox" x="-.05" y="-.04" width="1.1" height="1.18"><feOffset result="offOut" in="SourceAlpha" dy="6"/><feGaussianBlur result="blurOut" in="offOut" stdDeviation="5"/><feColorMatrix result="colorOut" in="blurOut" values="0 0 0 0 0 0 0 0 0 0 0 0 0 0 0 0 0 0 0.16862745098039217 0"/><feBlend in="SourceGraphic" in2="colorOut"/></filter><filter id="ah" filterUnits="objectBoundingBox" x="-.06" y="-.03" width="1.11" height="1.17"><feOffset result="offOut" in="SourceAlpha" dy="6"/><feGaussianBlur result="blurOut" in="offOut" stdDeviation="5"/><feColorMatrix result="colorOut" in="blurOut" values="0 0 0 0 0 0 0 0 0 0 0 0 0 0 0 0 0 0 0.16862745098039217 0"/><feBlend in="SourceGraphic" in2="colorOut"/></filter><g id="ai"><use transform="matrix(0.07407407407407408,0,0,0.07407407407407408,0,0)" xlink:href="#bm"/><use transform="matrix(0.07407407407407408,0,0,0.07407407407407408,19.185185185185187,0)" xlink:href="#an"/><use transform="matrix(0.07407407407407408,0,0,0.07407407407407408,34,0)" xlink:href="#aR"/><use transform="matrix(0.07407407407407408,0,0,0.07407407407407408,56.14814814814815,0)" xlink:href="#aR"/><use transform="matrix(0.07407407407407408,0,0,0.07407407407407408,78.2962962962963,0)" xlink:href="#ar"/><use transform="matrix(0.07407407407407408,0,0,0.07407407407407408,93.1111111111111,0)" xlink:href="#aO"/><use transform="matrix(0.07407407407407408,0,0,0.07407407407407408,107.92592592592592,0)" xlink:href="#aL"/></g><filter id="aj" filterUnits="objectBoundingBox" x="-.05" y="-.05" width="1.1" height="1.25"><feOffset result="offOut" in="SourceAlpha" dy="6"/><feGaussianBlur result="blurOut" in="offOut" stdDeviation="5"/><feColorMatrix result="colorOut" in="blurOut" values="0 0 0 0 0 0 0 0 0 0 0 0 0 0 0 0 0 0 0.16862745098039217 0"/><feBlend in="SourceGraphic" in2="colorOut"/></filter><path fill="#3d4752" d="M16-82v-28h88v28H16" id="bA"/><g id="ak"><use transform="matrix(0.07407407407407408,0,0,0.07407407407407408,0,0)" xlink:href="#bm"/><use transform="matrix(0.07407407407407408,0,0,0.07407407407407408,19.185185185185187,0)" xlink:href="#aT"/><use transform="matrix(0.07407407407407408,0,0,0.07407407407407408,34,0)" xlink:href="#ar"/><use transform="matrix(0.07407407407407408,0,0,0.07407407407407408,48.81481481481481,0)" xlink:href="#bl"/><use transform="matrix(0.07407407407407408,0,0,0.07407407407407408,62.14814814814816,0)" xlink:href="#bu"/><use transform="matrix(0.07407407407407408,0,0,0.07407407407407408,75.4814814814815,0)" xlink:href="#bA"/><use transform="matrix(0.07407407407407408,0,0,0.07407407407407408,84.2962962962963,0)" xlink:href="#bv"/><use transform="matrix(0.07407407407407408,0,0,0.07407407407407408,91.70370370370371,0)" xlink:href="#aO"/></g></defs></g></svg>